<?xml version="1.0" encoding="UTF-8"?>
<!DOCTYPE xmeml>
<xmeml version="4">
	<sequence id="sequence-1413" TL.SQAudioVisibleBase="0" TL.SQVideoVisibleBase="0" TL.SQVisibleBaseTime="0" TL.SQAVDividerPosition="0.644305765629" TL.SQHideShyTracks="0" TL.SQHeaderWidth="236" TL.SQDataTrackViewControlState="0" Monitor.ProgramZoomOut="3228120000000" Monitor.ProgramZoomIn="0" TL.SQTimePerPixel="0.0092897173489278756" AM.TrackVScrollPosition="0" AM.TrackScrollPosition="0" MZ.EditLine="0" MZ.Sequence.PreviewFrameSizeHeight="816" MZ.Sequence.PreviewFrameSizeWidth="1920" MZ.Sequence.AudioTimeDisplayFormat="200" MZ.Sequence.PreviewRenderingClassID="1061109567" MZ.Sequence.PreviewRenderingPresetCodec="1634755432" MZ.Sequence.PreviewRenderingPresetPath="EncoderPresets/SequencePreview/795454d9-d3c2-429d-9474-923ab13b7018/QuickTime.epr" MZ.Sequence.PreviewUseMaxRenderQuality="false" MZ.Sequence.PreviewUseMaxBitDepth="false" MZ.Sequence.EditingModeGUID="795454d9-d3c2-429d-9474-923ab13b7018" MZ.Sequence.VideoTimeDisplayFormat="100" MZ.WorkOutPoint="7705152000000" MZ.WorkInPoint="3027024000000" MZ.ZeroPoint="1828915200000000" explodedTracks="true">
		<uuid>b332f67d-69d3-4c62-b361-52cd6afda06a</uuid>
		<duration>305</duration>
		<rate>
			<timebase>24</timebase>
			<ntsc>FALSE</ntsc>
		</rate>
		<name>TEST_230918</name>
		<media>
			<video>
				<format>
					<samplecharacteristics>
						<rate>
							<timebase>24</timebase>
							<ntsc>FALSE</ntsc>
						</rate>
						<codec>
							<name>Apple ProRes 422</name>
							<appspecificdata>
								<appname>Final Cut Pro</appname>
								<appmanufacturer>Apple Inc.</appmanufacturer>
								<appversion>7.0</appversion>
								<data>
									<qtcodec>
										<codecname>Apple ProRes 422</codecname>
										<codectypename>Apple ProRes 422</codectypename>
										<codectypecode>apcn</codectypecode>
										<codecvendorcode>appl</codecvendorcode>
										<spatialquality>1024</spatialquality>
										<temporalquality>0</temporalquality>
										<keyframerate>0</keyframerate>
										<datarate>0</datarate>
									</qtcodec>
								</data>
							</appspecificdata>
						</codec>
						<width>1920</width>
						<height>816</height>
						<anamorphic>FALSE</anamorphic>
						<pixelaspectratio>square</pixelaspectratio>
						<fielddominance>none</fielddominance>
						<colordepth>24</colordepth>
					</samplecharacteristics>
				</format>
				<track TL.SQTrackShy="0" TL.SQTrackExpandedHeight="25" TL.SQTrackExpanded="0" MZ.TrackTargeted="0">
					<clipitem id="clipitem-21906">
						<masterclipid>masterclip-7737</masterclipid>
						<name>2pop_24fps_MyMovie.mov</name>
						<enabled>TRUE</enabled>
						<duration>192</duration>
						<rate>
							<timebase>24</timebase>
							<ntsc>FALSE</ntsc>
						</rate>
						<start>0</start>
						<end>192</end>
						<in>0</in>
						<out>192</out>
						<pproTicksIn>0</pproTicksIn>
						<pproTicksOut>2032128000000</pproTicksOut>
						<alphatype>none</alphatype>
						<pixelaspectratio>square</pixelaspectratio>
						<anamorphic>FALSE</anamorphic>
						<file id="file-6325">
							<name>2pop_24fps_MyMovie.mov</name>
							<pathurl>file://localhost/Volumes/Media/MyMovie/Media/Media%20-%20Editorial/Leaders/Premiere/2pop_24fps_MyMovie.mov</pathurl>
							<rate>
								<timebase>24</timebase>
								<ntsc>FALSE</ntsc>
							</rate>
							<duration>192</duration>
							<timecode>
								<rate>
									<timebase>24</timebase>
									<ntsc>FALSE</ntsc>
								</rate>
								<string>01:00:00:00</string>
								<frame>86400</frame>
								<displayformat>NDF</displayformat>
							</timecode>
							<media>
								<video>
									<samplecharacteristics>
										<rate>
											<timebase>24</timebase>
											<ntsc>FALSE</ntsc>
										</rate>
										<width>1920</width>
										<height>1080</height>
										<anamorphic>FALSE</anamorphic>
										<pixelaspectratio>square</pixelaspectratio>
										<fielddominance>none</fielddominance>
									</samplecharacteristics>
								</video>
								<audio>
									<samplecharacteristics>
										<depth>16</depth>
										<samplerate>48000</samplerate>
									</samplecharacteristics>
									<channelcount>2</channelcount>
								</audio>
							</media>
						</file>
							<marker>
								<comment></comment>
								<name>POP</name>
								<in>144</in>
								<out>-1</out>
								<pproColor>4281049552</pproColor>
							</marker>
						<logginginfo>
							<description></description>
							<scene></scene>
							<shottake></shottake>
							<lognote></lognote>
							<good></good>
							<originalvideofilename></originalvideofilename>
							<originalaudiofilename></originalaudiofilename>
						</logginginfo>
						<colorinfo>
							<lut></lut>
							<lut1></lut1>
							<asc_sop></asc_sop>
							<asc_sat></asc_sat>
							<lut2></lut2>
						</colorinfo>
						<labels>
							<label2>Blue</label2>
						</labels>
					</clipitem>
					<clipitem id="clipitem-21907">
						<masterclipid>masterclip-7738</masterclipid>
						<name>140B_18</name>
						<enabled>TRUE</enabled>
						<duration>650</duration>
						<rate>
							<timebase>24</timebase>
							<ntsc>FALSE</ntsc>
						</rate>
						<start>192</start>
						<end>305</end>
						<in>145</in>
						<out>258</out>
						<pproTicksIn>1534680000000</pproTicksIn>
						<pproTicksOut>2730672000000</pproTicksOut>
						<sequence id="sequence-1414" TL.SQAudioVisibleBase="0" TL.SQVideoVisibleBase="0" TL.SQVisibleBaseTime="0" TL.SQAVDividerPosition="0.497859328985" TL.SQHideShyTracks="0" TL.SQHeaderWidth="236" Monitor.ProgramZoomOut="6847848000000" Monitor.ProgramZoomIn="0" TL.SQTimePerPixel="0.010396518375241779" MZ.EditLine="0" MZ.Sequence.PreviewFrameSizeHeight="1188" MZ.Sequence.PreviewFrameSizeWidth="2312" MZ.Sequence.AudioTimeDisplayFormat="200" MZ.Sequence.PreviewRenderingClassID="1061109567" MZ.Sequence.PreviewRenderingPresetCodec="1634755432" MZ.Sequence.PreviewRenderingPresetPath="EncoderPresets/SequencePreview/795454d9-d3c2-429d-9474-923ab13b7018/QuickTime.epr" MZ.Sequence.PreviewUseMaxRenderQuality="false" MZ.Sequence.PreviewUseMaxBitDepth="false" MZ.Sequence.EditingModeGUID="795454d9-d3c2-429d-9474-923ab13b7018" MZ.Sequence.VideoTimeDisplayFormat="100" MZ.WorkOutPoint="15240960000000" MZ.WorkInPoint="0" MZ.ZeroPoint="11258370144000000">
							<duration>647</duration>
							<rate>
								<timebase>24</timebase>
								<ntsc>FALSE</ntsc>
							</rate>
							<name>140B_18</name>
							<media>
								<video>
									<format>
										<samplecharacteristics>
											<rate>
												<timebase>24</timebase>
												<ntsc>FALSE</ntsc>
											</rate>
											<codec>
												<name>Apple ProRes 422</name>
												<appspecificdata>
													<appname>Final Cut Pro</appname>
													<appmanufacturer>Apple Inc.</appmanufacturer>
													<appversion>7.0</appversion>
													<data>
														<qtcodec>
															<codecname>Apple ProRes 422</codecname>
															<codectypename>Apple ProRes 422</codectypename>
															<codectypecode>apcn</codectypecode>
															<codecvendorcode>appl</codecvendorcode>
															<spatialquality>1024</spatialquality>
															<temporalquality>0</temporalquality>
															<keyframerate>0</keyframerate>
															<datarate>0</datarate>
														</qtcodec>
													</data>
												</appspecificdata>
											</codec>
											<width>2312</width>
											<height>1188</height>
											<anamorphic>FALSE</anamorphic>
											<pixelaspectratio>square</pixelaspectratio>
											<fielddominance>none</fielddominance>
											<colordepth>24</colordepth>
										</samplecharacteristics>
									</format>
									<track TL.SQTrackShy="0" TL.SQTrackExpandedHeight="36" TL.SQTrackExpanded="0" MZ.TrackTargeted="0">
										<clipitem id="clipitem-21908">
											<masterclipid>masterclip-7739</masterclipid>
											<name>140B_18_A</name>
											<enabled>TRUE</enabled>
											<duration>645</duration>
											<rate>
												<timebase>24</timebase>
												<ntsc>FALSE</ntsc>
											</rate>
											<start>2</start>
											<end>647</end>
											<in>0</in>
											<out>645</out>
											<pproTicksIn>0</pproTicksIn>
											<pproTicksOut>6826680000000</pproTicksOut>
											<alphatype>none</alphatype>
											<pixelaspectratio>square</pixelaspectratio>
											<anamorphic>FALSE</anamorphic>
											<file id="file-6326">
												<name>A016_C046_1108OE.mov</name>
												<pathurl>file://localhost/Volumes/Media/MyMovie/Media/Dailies%20-%20ProResHQ/principal_main/shoot_day_0006/package_A016_1108FH/A016_1108FH/A016_1108FH.RDM/A016_C046_1108OE.mov</pathurl>
												<rate>
													<timebase>24</timebase>
													<ntsc>FALSE</ntsc>
												</rate>
												<duration>645</duration>
												<timecode>
													<rate>
														<timebase>24</timebase>
														<ntsc>FALSE</ntsc>
													</rate>
													<string>12:18:41:12</string>
													<frame>1063716</frame>
													<displayformat>NDF</displayformat>
													<reel>
														<name>A016_C046_1108OE</name>
													</reel>
												</timecode>
												<timecode>
													<rate>
														<timebase>24</timebase>
														<ntsc>FALSE</ntsc>
													</rate>
													<string>12:18:41:12</string>
													<frame>1063716</frame>
													<displayformat>NDF</displayformat>
													<source>sound</source>
													<reel>
														<name>soundReel</name>
													</reel>
												</timecode>
												<media>
													<video>
														<samplecharacteristics>
															<rate>
																<timebase>24</timebase>
																<ntsc>FALSE</ntsc>
															</rate>
															<width>2312</width>
															<height>1218</height>
															<anamorphic>FALSE</anamorphic>
															<pixelaspectratio>square</pixelaspectratio>
															<fielddominance>none</fielddominance>
														</samplecharacteristics>
													</video>
													<audio>
														<samplecharacteristics>
															<depth>16</depth>
															<samplerate>48000</samplerate>
														</samplecharacteristics>
														<channelcount>1</channelcount>
														<audiochannel>
															<sourcechannel>1</sourcechannel>
														</audiochannel>
													</audio>
													<audio>
														<samplecharacteristics>
															<depth>16</depth>
															<samplerate>48000</samplerate>
														</samplecharacteristics>
														<channelcount>1</channelcount>
														<audiochannel>
															<sourcechannel>2</sourcechannel>
														</audiochannel>
													</audio>
												</media>
											</file>
											<link>
												<linkclipref>clipitem-21908</linkclipref>
												<mediatype>video</mediatype>
												<trackindex>1</trackindex>
												<clipindex>1</clipindex>
											</link>
											<link>
												<linkclipref>clipitem-21910</linkclipref>
												<mediatype>audio</mediatype>
												<trackindex>1</trackindex>
												<clipindex>1</clipindex>
												<groupindex>1</groupindex>
											</link>
											<link>
												<linkclipref>clipitem-21911</linkclipref>
												<mediatype>audio</mediatype>
												<trackindex>2</trackindex>
												<clipindex>1</clipindex>
												<groupindex>1</groupindex>
											</link>
											<logginginfo>
												<description></description>
												<scene>140</scene>
												<shottake>18</shottake>
												<lognote></lognote>
												<good></good>
												<originalvideofilename></originalvideofilename>
												<originalaudiofilename></originalaudiofilename>
											</logginginfo>
											<colorinfo>
												<lut></lut>
												<lut1></lut1>
												<asc_sop></asc_sop>
												<asc_sat></asc_sat>
												<lut2></lut2>
											</colorinfo>
											<filmdata>
												<cameraroll>A016</cameraroll>
												<dailyroll></dailyroll>
												<labroll></labroll>
											</filmdata>
											<labels>
												<label2>Rose</label2>
											</labels>
										</clipitem>
										<enabled>TRUE</enabled>
										<locked>FALSE</locked>
									</track>
									<track TL.SQTrackShy="0" TL.SQTrackExpandedHeight="36" TL.SQTrackExpanded="0" MZ.TrackTargeted="0">
										<clipitem id="clipitem-21909">
											<masterclipid>masterclip-7740</masterclipid>
											<name>140B_18_B</name>
											<enabled>TRUE</enabled>
											<duration>619</duration>
											<rate>
												<timebase>24</timebase>
												<ntsc>FALSE</ntsc>
											</rate>
											<start>14</start>
											<end>633</end>
											<in>0</in>
											<out>619</out>
											<pproTicksIn>0</pproTicksIn>
											<pproTicksOut>6551496000000</pproTicksOut>
											<alphatype>none</alphatype>
											<pixelaspectratio>square</pixelaspectratio>
											<anamorphic>FALSE</anamorphic>
											<file id="file-6327">
												<name>B013_C047_1108ER.mov</name>
												<pathurl>file://localhost/Volumes/Media/MyMovie/Media/Dailies%20-%20ProResHQ/principal_main/shoot_day_0006/package_B013_110849/B013_110849/B013_110849.RDM/B013_C047_1108ER.mov</pathurl>
												<rate>
													<timebase>24</timebase>
													<ntsc>FALSE</ntsc>
												</rate>
												<duration>619</duration>
												<timecode>
													<rate>
														<timebase>24</timebase>
														<ntsc>FALSE</ntsc>
													</rate>
													<string>12:18:41:22</string>
													<frame>1063726</frame>
													<displayformat>NDF</displayformat>
													<reel>
														<name>B013_C047_1108ER</name>
													</reel>
												</timecode>
												<timecode>
													<rate>
														<timebase>24</timebase>
														<ntsc>FALSE</ntsc>
													</rate>
													<string>12:18:41:22</string>
													<frame>1063726</frame>
													<displayformat>NDF</displayformat>
													<source>sound</source>
													<reel>
														<name>soundReel</name>
													</reel>
												</timecode>
												<media>
													<video>
														<samplecharacteristics>
															<rate>
																<timebase>24</timebase>
																<ntsc>FALSE</ntsc>
															</rate>
															<width>2312</width>
															<height>1218</height>
															<anamorphic>FALSE</anamorphic>
															<pixelaspectratio>square</pixelaspectratio>
															<fielddominance>none</fielddominance>
														</samplecharacteristics>
													</video>
													<audio>
														<samplecharacteristics>
															<depth>16</depth>
															<samplerate>48000</samplerate>
														</samplecharacteristics>
														<channelcount>1</channelcount>
														<audiochannel>
															<sourcechannel>1</sourcechannel>
														</audiochannel>
													</audio>
													<audio>
														<samplecharacteristics>
															<depth>16</depth>
															<samplerate>48000</samplerate>
														</samplecharacteristics>
														<channelcount>1</channelcount>
														<audiochannel>
															<sourcechannel>2</sourcechannel>
														</audiochannel>
													</audio>
												</media>
											</file>
											<link>
												<linkclipref>clipitem-21909</linkclipref>
												<mediatype>video</mediatype>
												<trackindex>2</trackindex>
												<clipindex>1</clipindex>
											</link>
											<link>
												<linkclipref>clipitem-21912</linkclipref>
												<mediatype>audio</mediatype>
												<trackindex>3</trackindex>
												<clipindex>1</clipindex>
												<groupindex>1</groupindex>
											</link>
											<link>
												<linkclipref>clipitem-21913</linkclipref>
												<mediatype>audio</mediatype>
												<trackindex>4</trackindex>
												<clipindex>1</clipindex>
												<groupindex>1</groupindex>
											</link>
											<logginginfo>
												<description></description>
												<scene>140</scene>
												<shottake>18</shottake>
												<lognote></lognote>
												<good></good>
												<originalvideofilename></originalvideofilename>
												<originalaudiofilename></originalaudiofilename>
											</logginginfo>
											<colorinfo>
												<lut></lut>
												<lut1></lut1>
												<asc_sop></asc_sop>
												<asc_sat></asc_sat>
												<lut2></lut2>
											</colorinfo>
											<filmdata>
												<cameraroll>B013</cameraroll>
												<dailyroll></dailyroll>
												<labroll></labroll>
											</filmdata>
											<labels>
												<label2>Rose</label2>
											</labels>
										</clipitem>
										<enabled>TRUE</enabled>
										<locked>FALSE</locked>
									</track>
								</video>
								<audio>
									<numOutputChannels>1</numOutputChannels>
									<format>
										<samplecharacteristics>
											<depth>16</depth>
											<samplerate>48000</samplerate>
										</samplecharacteristics>
									</format>
									<outputs>
										<group>
											<index>1</index>
											<numchannels>1</numchannels>
											<downmix>0</downmix>
											<channel>
												<index>1</index>
											</channel>
										</group>
										<group>
											<index>2</index>
											<numchannels>1</numchannels>
											<downmix>0</downmix>
											<channel>
												<index>2</index>
											</channel>
										</group>
									</outputs>
									<track TL.SQTrackAudioKeyframeStyle="0" TL.SQTrackShy="0" TL.SQTrackExpandedHeight="49" TL.SQTrackExpanded="0" MZ.TrackTargeted="0" PannerCurrentValue="0.5" PannerIsInverted="true" PannerStartKeyframe="-91445760000000000,0.5,0,0,0,0,0,0" PannerName="Balance" currentExplodedTrackIndex="0" totalExplodedTrackCount="2" premiereTrackType="SixteenChannel">
										<clipitem id="clipitem-21910" premiereChannelType="adaptive">
											<masterclipid>masterclip-7739</masterclipid>
											<name>140B_18_A</name>
											<enabled>TRUE</enabled>
											<duration>645</duration>
											<rate>
												<timebase>24</timebase>
												<ntsc>FALSE</ntsc>
											</rate>
											<start>0</start>
											<end>645</end>
											<in>0</in>
											<out>645</out>
											<pproTicksIn>0</pproTicksIn>
											<pproTicksOut>6826680000000</pproTicksOut>
											<file id="file-6326"/>
											<sourcetrack>
												<mediatype>audio</mediatype>
												<trackindex>1</trackindex>
											</sourcetrack>
											<link>
												<linkclipref>clipitem-21908</linkclipref>
												<mediatype>video</mediatype>
												<trackindex>1</trackindex>
												<clipindex>1</clipindex>
											</link>
											<link>
												<linkclipref>clipitem-21910</linkclipref>
												<mediatype>audio</mediatype>
												<trackindex>1</trackindex>
												<clipindex>1</clipindex>
												<groupindex>1</groupindex>
											</link>
											<link>
												<linkclipref>clipitem-21911</linkclipref>
												<mediatype>audio</mediatype>
												<trackindex>2</trackindex>
												<clipindex>1</clipindex>
												<groupindex>1</groupindex>
											</link>
											<logginginfo>
												<description></description>
												<scene>140</scene>
												<shottake>18</shottake>
												<lognote></lognote>
												<good></good>
												<originalvideofilename></originalvideofilename>
												<originalaudiofilename></originalaudiofilename>
											</logginginfo>
											<colorinfo>
												<lut></lut>
												<lut1></lut1>
												<asc_sop></asc_sop>
												<asc_sat></asc_sat>
												<lut2></lut2>
											</colorinfo>
											<filmdata>
												<cameraroll>A016</cameraroll>
												<dailyroll></dailyroll>
												<labroll></labroll>
											</filmdata>
											<labels>
												<label2>Rose</label2>
											</labels>
										</clipitem>
										<enabled>TRUE</enabled>
										<locked>FALSE</locked>
										<outputchannelindex>1</outputchannelindex>
									</track>
									<track TL.SQTrackAudioKeyframeStyle="0" TL.SQTrackShy="0" TL.SQTrackExpandedHeight="49" TL.SQTrackExpanded="0" MZ.TrackTargeted="0" PannerCurrentValue="0.5" PannerIsInverted="true" PannerStartKeyframe="-91445760000000000,0.5,0,0,0,0,0,0" PannerName="Balance" currentExplodedTrackIndex="1" totalExplodedTrackCount="2" premiereTrackType="SixteenChannel">
										<clipitem id="clipitem-21911" premiereChannelType="adaptive">
											<masterclipid>masterclip-7739</masterclipid>
											<name>140B_18_A</name>
											<enabled>TRUE</enabled>
											<duration>645</duration>
											<rate>
												<timebase>24</timebase>
												<ntsc>FALSE</ntsc>
											</rate>
											<start>0</start>
											<end>645</end>
											<in>0</in>
											<out>645</out>
											<pproTicksIn>0</pproTicksIn>
											<pproTicksOut>6826680000000</pproTicksOut>
											<file id="file-6326"/>
											<sourcetrack>
												<mediatype>audio</mediatype>
												<trackindex>2</trackindex>
											</sourcetrack>
											<link>
												<linkclipref>clipitem-21908</linkclipref>
												<mediatype>video</mediatype>
												<trackindex>1</trackindex>
												<clipindex>1</clipindex>
											</link>
											<link>
												<linkclipref>clipitem-21910</linkclipref>
												<mediatype>audio</mediatype>
												<trackindex>1</trackindex>
												<clipindex>1</clipindex>
												<groupindex>1</groupindex>
											</link>
											<link>
												<linkclipref>clipitem-21911</linkclipref>
												<mediatype>audio</mediatype>
												<trackindex>2</trackindex>
												<clipindex>1</clipindex>
												<groupindex>1</groupindex>
											</link>
											<logginginfo>
												<description></description>
												<scene>140</scene>
												<shottake>18</shottake>
												<lognote></lognote>
												<good></good>
												<originalvideofilename></originalvideofilename>
												<originalaudiofilename></originalaudiofilename>
											</logginginfo>
											<colorinfo>
												<lut></lut>
												<lut1></lut1>
												<asc_sop></asc_sop>
												<asc_sat></asc_sat>
												<lut2></lut2>
											</colorinfo>
											<filmdata>
												<cameraroll>A016</cameraroll>
												<dailyroll></dailyroll>
												<labroll></labroll>
											</filmdata>
											<labels>
												<label2>Rose</label2>
											</labels>
										</clipitem>
										<enabled>TRUE</enabled>
										<locked>FALSE</locked>
										<outputchannelindex>2</outputchannelindex>
									</track>
									<track TL.SQTrackAudioKeyframeStyle="0" TL.SQTrackShy="0" TL.SQTrackExpandedHeight="49" TL.SQTrackExpanded="0" MZ.TrackTargeted="0" PannerCurrentValue="0.5" PannerIsInverted="true" PannerStartKeyframe="-91445760000000000,0.5,0,0,0,0,0,0" PannerName="Balance" currentExplodedTrackIndex="0" totalExplodedTrackCount="2" premiereTrackType="SixteenChannel">
										<clipitem id="clipitem-21912" premiereChannelType="adaptive">
											<masterclipid>masterclip-7740</masterclipid>
											<name>140B_18_B</name>
											<enabled>TRUE</enabled>
											<duration>619</duration>
											<rate>
												<timebase>24</timebase>
												<ntsc>FALSE</ntsc>
											</rate>
											<start>10</start>
											<end>629</end>
											<in>0</in>
											<out>619</out>
											<pproTicksIn>0</pproTicksIn>
											<pproTicksOut>6551496000000</pproTicksOut>
											<file id="file-6327"/>
											<sourcetrack>
												<mediatype>audio</mediatype>
												<trackindex>1</trackindex>
											</sourcetrack>
											<link>
												<linkclipref>clipitem-21909</linkclipref>
												<mediatype>video</mediatype>
												<trackindex>2</trackindex>
												<clipindex>1</clipindex>
											</link>
											<link>
												<linkclipref>clipitem-21912</linkclipref>
												<mediatype>audio</mediatype>
												<trackindex>3</trackindex>
												<clipindex>1</clipindex>
												<groupindex>1</groupindex>
											</link>
											<link>
												<linkclipref>clipitem-21913</linkclipref>
												<mediatype>audio</mediatype>
												<trackindex>4</trackindex>
												<clipindex>1</clipindex>
												<groupindex>1</groupindex>
											</link>
											<logginginfo>
												<description></description>
												<scene>140</scene>
												<shottake>18</shottake>
												<lognote></lognote>
												<good></good>
												<originalvideofilename></originalvideofilename>
												<originalaudiofilename></originalaudiofilename>
											</logginginfo>
											<colorinfo>
												<lut></lut>
												<lut1></lut1>
												<asc_sop></asc_sop>
												<asc_sat></asc_sat>
												<lut2></lut2>
											</colorinfo>
											<filmdata>
												<cameraroll>B013</cameraroll>
												<dailyroll></dailyroll>
												<labroll></labroll>
											</filmdata>
											<labels>
												<label2>Rose</label2>
											</labels>
										</clipitem>
										<enabled>TRUE</enabled>
										<locked>FALSE</locked>
										<outputchannelindex>1</outputchannelindex>
									</track>
									<track TL.SQTrackAudioKeyframeStyle="0" TL.SQTrackShy="0" TL.SQTrackExpandedHeight="49" TL.SQTrackExpanded="0" MZ.TrackTargeted="0" PannerCurrentValue="0.5" PannerIsInverted="true" PannerStartKeyframe="-91445760000000000,0.5,0,0,0,0,0,0" PannerName="Balance" currentExplodedTrackIndex="1" totalExplodedTrackCount="2" premiereTrackType="SixteenChannel">
										<clipitem id="clipitem-21913" premiereChannelType="adaptive">
											<masterclipid>masterclip-7740</masterclipid>
											<name>140B_18_B</name>
											<enabled>TRUE</enabled>
											<duration>619</duration>
											<rate>
												<timebase>24</timebase>
												<ntsc>FALSE</ntsc>
											</rate>
											<start>10</start>
											<end>629</end>
											<in>0</in>
											<out>619</out>
											<pproTicksIn>0</pproTicksIn>
											<pproTicksOut>6551496000000</pproTicksOut>
											<file id="file-6327"/>
											<sourcetrack>
												<mediatype>audio</mediatype>
												<trackindex>2</trackindex>
											</sourcetrack>
											<link>
												<linkclipref>clipitem-21909</linkclipref>
												<mediatype>video</mediatype>
												<trackindex>2</trackindex>
												<clipindex>1</clipindex>
											</link>
											<link>
												<linkclipref>clipitem-21912</linkclipref>
												<mediatype>audio</mediatype>
												<trackindex>3</trackindex>
												<clipindex>1</clipindex>
												<groupindex>1</groupindex>
											</link>
											<link>
												<linkclipref>clipitem-21913</linkclipref>
												<mediatype>audio</mediatype>
												<trackindex>4</trackindex>
												<clipindex>1</clipindex>
												<groupindex>1</groupindex>
											</link>
											<logginginfo>
												<description></description>
												<scene>140</scene>
												<shottake>18</shottake>
												<lognote></lognote>
												<good></good>
												<originalvideofilename></originalvideofilename>
												<originalaudiofilename></originalaudiofilename>
											</logginginfo>
											<colorinfo>
												<lut></lut>
												<lut1></lut1>
												<asc_sop></asc_sop>
												<asc_sat></asc_sat>
												<lut2></lut2>
											</colorinfo>
											<filmdata>
												<cameraroll>B013</cameraroll>
												<dailyroll></dailyroll>
												<labroll></labroll>
											</filmdata>
											<labels>
												<label2>Rose</label2>
											</labels>
										</clipitem>
										<enabled>TRUE</enabled>
										<locked>FALSE</locked>
										<outputchannelindex>2</outputchannelindex>
									</track>
								</audio>
							</media>
							<timecode>
								<rate>
									<timebase>24</timebase>
									<ntsc>FALSE</ntsc>
								</rate>
								<string>12:18:41:12</string>
								<frame>1063716</frame>
								<displayformat>NDF</displayformat>
							</timecode>
								<marker>
									<comment>DF (11/10): GOOD - AND NOW WE CANNOT HOLD FOR TOO LONG AFTER BECAUSE DEVOLVES INTO BLURRY SHAPES</comment>
									<name></name>
									<in>298</in>
									<out>-1</out>
								</marker>
								<marker>
									<comment>Script Notes: GOOD</comment>
									<name></name>
									<in>314</in>
									<out>-1</out>
								</marker>
							<logginginfo>
								<description></description>
								<scene></scene>
								<shottake></shottake>
								<lognote></lognote>
								<good></good>
								<originalvideofilename></originalvideofilename>
								<originalaudiofilename></originalaudiofilename>
							</logginginfo>
						</sequence>
							<marker>
								<comment>DF (11/10): GOOD - AND NOW WE CANNOT HOLD FOR TOO LONG AFTER BECAUSE DEVOLVES INTO BLURRY SHAPES</comment>
								<name></name>
								<in>298</in>
								<out>-1</out>
							</marker>
							<marker>
								<comment>Script Notes: GOOD</comment>
								<name></name>
								<in>314</in>
								<out>-1</out>
							</marker>
						<labels>
							<label2>Rose</label2>
						</labels>
					</clipitem>
					<enabled>TRUE</enabled>
					<locked>FALSE</locked>
				</track>
				<track TL.SQTrackShy="0" TL.SQTrackExpandedHeight="25" TL.SQTrackExpanded="0" MZ.TrackTargeted="0">
					<clipitem id="clipitem-21914">
						<masterclipid>masterclip-7741</masterclipid>
						<name>20220104_lock_France_Assembly Linked Comp 5120220105_SR_lock_FranceAssembly.aep_Rendered.mov</name>
						<enabled>TRUE</enabled>
						<duration>161</duration>
						<rate>
							<timebase>24</timebase>
							<ntsc>FALSE</ntsc>
						</rate>
						<start>192</start>
						<end>305</end>
						<in>24</in>
						<out>137</out>
						<pproTicksIn>254016000000</pproTicksIn>
						<pproTicksOut>1450008000000</pproTicksOut>
						<alphatype>none</alphatype>
						<pixelaspectratio>square</pixelaspectratio>
						<anamorphic>FALSE</anamorphic>
						<file id="file-6328">
							<name>20220104_lock_France_Assembly Linked Comp 5120220105_SR_lock_FranceAssembly.aep_Rendered.mov</name>
							<pathurl>file://localhost/Volumes/Media/MyMovie/Media/Media%20-%20Editorial/Dynamic%20Links/2022-03/20220104_lock_France_Assembly%20Linked%20Comp%205120220105_SR_lock_FranceAssembly.aep_Rendered.mov</pathurl>
							<rate>
								<timebase>24</timebase>
								<ntsc>FALSE</ntsc>
							</rate>
							<duration>161</duration>
							<timecode>
								<rate>
									<timebase>24</timebase>
									<ntsc>FALSE</ntsc>
								</rate>
								<string>00:00:00:00</string>
								<frame>0</frame>
								<displayformat>NDF</displayformat>
							</timecode>
							<media>
								<video>
									<samplecharacteristics>
										<rate>
											<timebase>24</timebase>
											<ntsc>FALSE</ntsc>
										</rate>
										<width>2312</width>
										<height>1218</height>
										<anamorphic>FALSE</anamorphic>
										<pixelaspectratio>square</pixelaspectratio>
										<fielddominance>none</fielddominance>
									</samplecharacteristics>
								</video>
							</media>
						</file>
						<logginginfo>
							<description></description>
							<scene></scene>
							<shottake></shottake>
							<lognote></lognote>
							<good></good>
							<originalvideofilename></originalvideofilename>
							<originalaudiofilename></originalaudiofilename>
						</logginginfo>
						<colorinfo>
							<lut></lut>
							<lut1></lut1>
							<asc_sop></asc_sop>
							<asc_sat></asc_sat>
							<lut2></lut2>
						</colorinfo>
						<labels>
							<label2>Violet</label2>
						</labels>
					</clipitem>
					<enabled>TRUE</enabled>
					<locked>FALSE</locked>
				</track>
				<track TL.SQTrackShy="0" TL.SQTrackExpandedHeight="25" TL.SQTrackExpanded="0" MZ.TrackTargeted="0">
					<clipitem id="clipitem-21915">
						<masterclipid>masterclip-7742</masterclipid>
						<name>140_PAI_0020_lock_SR_v01</name>
						<enabled>TRUE</enabled>
						<duration>130</duration>
						<rate>
							<timebase>24</timebase>
							<ntsc>FALSE</ntsc>
						</rate>
						<start>192</start>
						<end>305</end>
						<in>9</in>
						<out>122</out>
						<pproTicksIn>95256000000</pproTicksIn>
						<pproTicksOut>1291248000000</pproTicksOut>
						<alphatype>none</alphatype>
						<pixelaspectratio>square</pixelaspectratio>
						<anamorphic>FALSE</anamorphic>
						<file id="file-6329">
							<name>140_PAI_0020_lock_SR_v01.mov</name>
							<pathurl>file://localhost/Volumes/Media/MyMovie/Media/Media%20-%20Received/VFX/140_PAI_0020/140_PAI_0020_lock_SR_v01.mov</pathurl>
							<rate>
								<timebase>24</timebase>
								<ntsc>FALSE</ntsc>
							</rate>
							<duration>130</duration>
							<timecode>
								<rate>
									<timebase>24</timebase>
									<ntsc>FALSE</ntsc>
								</rate>
								<string>12:18:47:02</string>
								<frame>1063850</frame>
								<displayformat>NDF</displayformat>
								<reel>
									<name>A016_C046_1108OE</name>
								</reel>
							</timecode>
							<media>
								<video>
									<samplecharacteristics>
										<rate>
											<timebase>24</timebase>
											<ntsc>FALSE</ntsc>
										</rate>
										<width>2312</width>
										<height>1218</height>
										<anamorphic>FALSE</anamorphic>
										<pixelaspectratio>square</pixelaspectratio>
										<fielddominance>none</fielddominance>
									</samplecharacteristics>
								</video>
							</media>
						</file>
						<logginginfo>
							<description>lockilization</description>
							<scene>140</scene>
							<shottake>18</shottake>
							<lognote></lognote>
							<good></good>
							<originalvideofilename></originalvideofilename>
							<originalaudiofilename></originalaudiofilename>
						</logginginfo>
						<colorinfo>
							<lut></lut>
							<lut1></lut1>
							<asc_sop></asc_sop>
							<asc_sat></asc_sat>
							<lut2></lut2>
						</colorinfo>
						<filmdata>
							<cameraroll>08OE</cameraroll>
							<dailyroll></dailyroll>
							<labroll></labroll>
						</filmdata>
						<labels>
							<label2>Teal</label2>
						</labels>
					</clipitem>
					<enabled>TRUE</enabled>
					<locked>FALSE</locked>
				</track>
				<track TL.SQTrackShy="0" TL.SQTrackExpandedHeight="25" TL.SQTrackExpanded="0" MZ.TrackTargeted="0">
					<enabled>TRUE</enabled>
					<locked>FALSE</locked>
				</track>
				<track TL.SQTrackShy="0" TL.SQTrackExpandedHeight="25" TL.SQTrackExpanded="0" MZ.TrackTargeted="0">
					<enabled>TRUE</enabled>
					<locked>FALSE</locked>
				</track>
				<track TL.SQTrackShy="0" TL.SQTrackExpandedHeight="25" TL.SQTrackExpanded="0" MZ.TrackTargeted="0">
					<enabled>TRUE</enabled>
					<locked>FALSE</locked>
				</track>
				<track TL.SQTrackShy="0" TL.SQTrackExpandedHeight="25" TL.SQTrackExpanded="0" MZ.TrackTargeted="0">
					<enabled>TRUE</enabled>
					<locked>FALSE</locked>
				</track>
				<track TL.SQTrackShy="0" TL.SQTrackExpandedHeight="25" TL.SQTrackExpanded="0" MZ.TrackTargeted="0">
					<enabled>TRUE</enabled>
					<locked>FALSE</locked>
				</track>
				<track TL.SQTrackShy="0" TL.SQTrackExpandedHeight="25" TL.SQTrackExpanded="0" MZ.TrackTargeted="0">
					<enabled>TRUE</enabled>
					<locked>FALSE</locked>
				</track>
				<track TL.SQTrackShy="0" TL.SQTrackExpandedHeight="25" TL.SQTrackExpanded="0" MZ.TrackTargeted="0">
					<enabled>TRUE</enabled>
					<locked>FALSE</locked>
				</track>
				<track TL.SQTrackShy="0" TL.SQTrackExpandedHeight="25" TL.SQTrackExpanded="0" MZ.TrackTargeted="0">
					<enabled>TRUE</enabled>
					<locked>FALSE</locked>
				</track>
				<track TL.SQTrackShy="0" TL.SQTrackExpandedHeight="25" TL.SQTrackExpanded="0" MZ.TrackTargeted="0">
					<enabled>TRUE</enabled>
					<locked>FALSE</locked>
				</track>
				<track TL.SQTrackShy="0" TL.SQTrackExpandedHeight="25" TL.SQTrackExpanded="0" MZ.TrackTargeted="0">
					<enabled>TRUE</enabled>
					<locked>FALSE</locked>
				</track>
				<track TL.SQTrackShy="0" TL.SQTrackExpandedHeight="25" TL.SQTrackExpanded="0" MZ.TrackTargeted="1">
					<clipitem id="clipitem-21916">
						<masterclipid>masterclip-7743</masterclipid>
						<name>MyMovie_R2_37_20230619k_v16_ana.mov</name>
						<enabled>TRUE</enabled>
						<duration>25438</duration>
						<rate>
							<timebase>24</timebase>
							<ntsc>FALSE</ntsc>
						</rate>
						<start>0</start>
						<end>192</end>
						<in>0</in>
						<out>192</out>
						<pproTicksIn>0</pproTicksIn>
						<pproTicksOut>2032128000000</pproTicksOut>
						<alphatype>none</alphatype>
						<pixelaspectratio>square</pixelaspectratio>
						<anamorphic>FALSE</anamorphic>
						<file id="file-6330">
							<name>MyMovie_R2_37_20230619k_v16_ana.mov</name>
							<pathurl>file://localhost/Volumes/Media/MyMovie/Media/Media%20-%20Received/Conform/R2/20230913/MyMovie_R2_37_20230619k_v16_ana.mov</pathurl>
							<rate>
								<timebase>24</timebase>
								<ntsc>FALSE</ntsc>
							</rate>
							<duration>25438</duration>
							<timecode>
								<rate>
									<timebase>24</timebase>
									<ntsc>FALSE</ntsc>
								</rate>
								<string>02:00:00:00</string>
								<frame>172800</frame>
								<displayformat>NDF</displayformat>
							</timecode>
							<media>
								<video>
									<samplecharacteristics>
										<rate>
											<timebase>24</timebase>
											<ntsc>FALSE</ntsc>
										</rate>
										<width>3840</width>
										<height>2160</height>
										<anamorphic>FALSE</anamorphic>
										<pixelaspectratio>square</pixelaspectratio>
										<fielddominance>none</fielddominance>
									</samplecharacteristics>
								</video>
								<audio>
									<samplecharacteristics>
										<depth>16</depth>
										<samplerate>48000</samplerate>
									</samplecharacteristics>
									<channelcount>2</channelcount>
								</audio>
							</media>
						</file>
						<filter>
							<effect>
								<name>Basic Motion</name>
								<effectid>basic</effectid>
								<effectcategory>motion</effectcategory>
								<effecttype>motion</effecttype>
								<mediatype>video</mediatype>
								<pproBypass>false</pproBypass>
								<parameter authoringApp="PremierePro">
									<parameterid>scale</parameterid>
									<name>Scale</name>
									<valuemin>0</valuemin>
									<valuemax>1000</valuemax>
									<value>50</value>
								</parameter>
								<parameter authoringApp="PremierePro">
									<parameterid>rotation</parameterid>
									<name>Rotation</name>
									<valuemin>-8640</valuemin>
									<valuemax>8640</valuemax>
									<value>0</value>
								</parameter>
								<parameter authoringApp="PremierePro">
									<parameterid>center</parameterid>
									<name>Center</name>
									<value>
										<horiz>0</horiz>
										<vert>0</vert>
									</value>
								</parameter>
								<parameter authoringApp="PremierePro">
									<parameterid>centerOffset</parameterid>
									<name>Anchor Point</name>
									<value>
										<horiz>0</horiz>
										<vert>0</vert>
									</value>
								</parameter>
								<parameter authoringApp="PremierePro">
									<parameterid>antiflicker</parameterid>
									<name>Anti-flicker Filter</name>
									<valuemin>0.0</valuemin>
									<valuemax>1.0</valuemax>
									<value>0</value>
								</parameter>
							</effect>
						</filter>
						<logginginfo>
							<description></description>
							<scene></scene>
							<shottake></shottake>
							<lognote></lognote>
							<good></good>
							<originalvideofilename></originalvideofilename>
							<originalaudiofilename></originalaudiofilename>
						</logginginfo>
						<colorinfo>
							<lut></lut>
							<lut1></lut1>
							<asc_sop></asc_sop>
							<asc_sat></asc_sat>
							<lut2></lut2>
						</colorinfo>
						<labels>
							<label2>Mango</label2>
						</labels>
					</clipitem>
					<clipitem id="clipitem-21917">
						<masterclipid>masterclip-7743</masterclipid>
						<name>MyMovie_R2_37_20230619k_v16_ana.mov</name>
						<enabled>TRUE</enabled>
						<duration>25438</duration>
						<rate>
							<timebase>24</timebase>
							<ntsc>FALSE</ntsc>
						</rate>
						<start>192</start>
						<end>305</end>
						<in>192</in>
						<out>305</out>
						<pproTicksIn>2032128000000</pproTicksIn>
						<pproTicksOut>3228120000000</pproTicksOut>
						<alphatype>none</alphatype>
						<file id="file-6330"/>
						<filter>
							<effect>
								<name>Basic Motion</name>
								<effectid>basic</effectid>
								<effectcategory>motion</effectcategory>
								<effecttype>motion</effecttype>
								<mediatype>video</mediatype>
								<pproBypass>false</pproBypass>
								<parameter authoringApp="PremierePro">
									<parameterid>scale</parameterid>
									<name>Scale</name>
									<valuemin>0</valuemin>
									<valuemax>1000</valuemax>
									<value>50</value>
								</parameter>
								<parameter authoringApp="PremierePro">
									<parameterid>rotation</parameterid>
									<name>Rotation</name>
									<valuemin>-8640</valuemin>
									<valuemax>8640</valuemax>
									<value>0</value>
								</parameter>
								<parameter authoringApp="PremierePro">
									<parameterid>center</parameterid>
									<name>Center</name>
									<value>
										<horiz>0</horiz>
										<vert>0</vert>
									</value>
								</parameter>
								<parameter authoringApp="PremierePro">
									<parameterid>centerOffset</parameterid>
									<name>Anchor Point</name>
									<value>
										<horiz>0</horiz>
										<vert>0</vert>
									</value>
								</parameter>
								<parameter authoringApp="PremierePro">
									<parameterid>antiflicker</parameterid>
									<name>Anti-flicker Filter</name>
									<valuemin>0.0</valuemin>
									<valuemax>1.0</valuemax>
									<value>0</value>
								</parameter>
							</effect>
						</filter>
						<logginginfo>
							<description></description>
							<scene></scene>
							<shottake></shottake>
							<lognote></lognote>
							<good></good>
							<originalvideofilename></originalvideofilename>
							<originalaudiofilename></originalaudiofilename>
						</logginginfo>
						<colorinfo>
							<lut></lut>
							<lut1></lut1>
							<asc_sop></asc_sop>
							<asc_sat></asc_sat>
							<lut2></lut2>
						</colorinfo>
						<labels>
							<label2>Mango</label2>
						</labels>
					</clipitem>
					<enabled>TRUE</enabled>
					<locked>FALSE</locked>
				</track>
			</video>
			<audio>
				<numOutputChannels>2</numOutputChannels>
				<format>
					<samplecharacteristics>
						<depth>16</depth>
						<samplerate>48000</samplerate>
					</samplecharacteristics>
				</format>
				<outputs>
					<group>
						<index>1</index>
						<numchannels>1</numchannels>
						<downmix>0</downmix>
						<channel>
							<index>1</index>
						</channel>
					</group>
					<group>
						<index>2</index>
						<numchannels>1</numchannels>
						<downmix>0</downmix>
						<channel>
							<index>2</index>
						</channel>
					</group>
				</outputs>
				<track TL.SQTrackAudioKeyframeStyle="0" TL.SQTrackShy="0" TL.SQTrackExpandedHeight="15" TL.SQTrackExpanded="0" MZ.TrackTargeted="0" PannerCurrentValue="0" PannerIsInverted="true" PannerStartKeyframe="-91445760000000000,0.,0,0,0,0,0,0" PannerName="Pan" currentExplodedTrackIndex="0" totalExplodedTrackCount="1" premiereTrackType="Mono">
					<clipitem id="clipitem-21918" premiereChannelType="mono">
						<masterclipid>masterclip-7744</masterclipid>
						<name>MyMovie_LP_V230510_HomeTheater_LORO_PrintMaster_0612.L.wav</name>
						<enabled>TRUE</enabled>
						<duration>172800</duration>
						<rate>
							<timebase>24</timebase>
							<ntsc>FALSE</ntsc>
						</rate>
						<start>0</start>
						<end>192</end>
						<in>0</in>
						<out>192</out>
						<pproTicksIn>0</pproTicksIn>
						<pproTicksOut>2032128000000</pproTicksOut>
						<file id="file-6331">
							<name>MyMovie_LP_V230510_HomeTheater_LORO_PrintMaster_0612.L.wav</name>
							<pathurl>file://localhost/Volumes/Media/MyMovie/Media/Media%20-%20Received/Sound/Mixes/Longplay/20230612%20Printmasters/Home%20Theater%20Longplay%20(Near%20Field)/2023_06_12_Final%20Mix%20PrintMaster%20LoRo%20Home%20Theater/MyMovie_LP_V230510_HomeTheater_LORO_PrintMaster_0612.L.wav</pathurl>
							<rate>
								<timebase>24</timebase>
								<ntsc>FALSE</ntsc>
							</rate>
							<duration>172800</duration>
							<timecode>
								<rate>
									<timebase>24</timebase>
									<ntsc>FALSE</ntsc>
								</rate>
								<string>01:00:00:00</string>
								<frame>86400</frame>
								<displayformat>NDF</displayformat>
							</timecode>
							<media>
								<audio>
									<samplecharacteristics>
										<depth>16</depth>
										<samplerate>48000</samplerate>
									</samplecharacteristics>
									<channelcount>1</channelcount>
									<audiochannel>
										<sourcechannel>1</sourcechannel>
									</audiochannel>
								</audio>
							</media>
						</file>
						<sourcetrack>
							<mediatype>audio</mediatype>
							<trackindex>1</trackindex>
						</sourcetrack>
						<logginginfo>
							<description></description>
							<scene></scene>
							<shottake></shottake>
							<lognote></lognote>
							<good></good>
							<originalvideofilename></originalvideofilename>
							<originalaudiofilename></originalaudiofilename>
						</logginginfo>
						<colorinfo>
							<lut></lut>
							<lut1></lut1>
							<asc_sop></asc_sop>
							<asc_sat></asc_sat>
							<lut2></lut2>
						</colorinfo>
						<labels>
							<label2>Caribbean</label2>
						</labels>
					</clipitem>
					<enabled>TRUE</enabled>
					<locked>FALSE</locked>
					<outputchannelindex>1</outputchannelindex>
				</track>
				<track TL.SQTrackAudioKeyframeStyle="0" TL.SQTrackShy="0" TL.SQTrackExpandedHeight="15" TL.SQTrackExpanded="0" MZ.TrackTargeted="0" PannerIsInverted="true" PannerName="Pan" currentExplodedTrackIndex="0" totalExplodedTrackCount="1" premiereTrackType="Mono">
					<clipitem id="clipitem-21919" premiereChannelType="mono">
						<masterclipid>masterclip-7745</masterclipid>
						<name>MyMovie_LP_V230510_HomeTheater_LORO_PrintMaster_0612.R.wav</name>
						<enabled>TRUE</enabled>
						<duration>172800</duration>
						<rate>
							<timebase>24</timebase>
							<ntsc>FALSE</ntsc>
						</rate>
						<start>0</start>
						<end>192</end>
						<in>0</in>
						<out>192</out>
						<pproTicksIn>0</pproTicksIn>
						<pproTicksOut>2032128000000</pproTicksOut>
						<file id="file-6332">
							<name>MyMovie_LP_V230510_HomeTheater_LORO_PrintMaster_0612.R.wav</name>
							<pathurl>file://localhost/Volumes/Media/MyMovie/Media/Media%20-%20Received/Sound/Mixes/Longplay/20230612%20Printmasters/Home%20Theater%20Longplay%20(Near%20Field)/2023_06_12_Final%20Mix%20PrintMaster%20LoRo%20Home%20Theater/MyMovie_LP_V230510_HomeTheater_LORO_PrintMaster_0612.R.wav</pathurl>
							<rate>
								<timebase>24</timebase>
								<ntsc>FALSE</ntsc>
							</rate>
							<duration>172800</duration>
							<timecode>
								<rate>
									<timebase>24</timebase>
									<ntsc>FALSE</ntsc>
								</rate>
								<string>01:00:00:00</string>
								<frame>86400</frame>
								<displayformat>NDF</displayformat>
							</timecode>
							<media>
								<audio>
									<samplecharacteristics>
										<depth>16</depth>
										<samplerate>48000</samplerate>
									</samplecharacteristics>
									<channelcount>1</channelcount>
									<audiochannel>
										<sourcechannel>1</sourcechannel>
									</audiochannel>
								</audio>
							</media>
						</file>
						<sourcetrack>
							<mediatype>audio</mediatype>
							<trackindex>1</trackindex>
						</sourcetrack>
						<logginginfo>
							<description></description>
							<scene></scene>
							<shottake></shottake>
							<lognote></lognote>
							<good></good>
							<originalvideofilename></originalvideofilename>
							<originalaudiofilename></originalaudiofilename>
						</logginginfo>
						<colorinfo>
							<lut></lut>
							<lut1></lut1>
							<asc_sop></asc_sop>
							<asc_sat></asc_sat>
							<lut2></lut2>
						</colorinfo>
						<labels>
							<label2>Mango</label2>
						</labels>
					</clipitem>
					<enabled>TRUE</enabled>
					<locked>FALSE</locked>
					<outputchannelindex>2</outputchannelindex>
				</track>
				<track TL.SQTrackAudioKeyframeStyle="0" TL.SQTrackShy="0" TL.SQTrackExpandedHeight="15" TL.SQTrackExpanded="0" MZ.TrackTargeted="0" PannerCurrentValue="0.5" PannerIsInverted="true" PannerStartKeyframe="-91445760000000000,0.5,0,0,0,0,0,0" PannerName="Balance" currentExplodedTrackIndex="0" totalExplodedTrackCount="2" premiereTrackType="Stereo">
					<clipitem id="clipitem-21920" premiereChannelType="stereo">
						<masterclipid>masterclip-7746</masterclipid>
						<name>MyMovie_LP_v0126_HT_LoRo_24_DxStem_1-2_0201.wav</name>
						<enabled>TRUE</enabled>
						<duration>180000</duration>
						<rate>
							<timebase>24</timebase>
							<ntsc>FALSE</ntsc>
						</rate>
						<start>0</start>
						<end>192</end>
						<in>0</in>
						<out>192</out>
						<pproTicksIn>0</pproTicksIn>
						<pproTicksOut>2032128000000</pproTicksOut>
						<file id="file-6333">
							<name>MyMovie_LP_v0126_HT_LoRo_24_DxStem_1-2_0201.wav</name>
							<pathurl>file://localhost/Volumes/Media/MyMovie/Media/Media%20-%20Received/Sound/Mixes/Longplay/20230202%20Stereo%20Crashdowns/2023_02_02_Stereo%20Crashdowns_interleaved/MyMovie_LP_v0126_HT_LoRo_24_DxStem_1-2_0201.wav</pathurl>
							<rate>
								<timebase>24</timebase>
								<ntsc>FALSE</ntsc>
							</rate>
							<duration>180000</duration>
							<timecode>
								<rate>
									<timebase>24</timebase>
									<ntsc>FALSE</ntsc>
								</rate>
								<string>01:00:00:00</string>
								<frame>86400</frame>
								<displayformat>NDF</displayformat>
							</timecode>
							<media>
								<audio>
									<samplecharacteristics>
										<depth>16</depth>
										<samplerate>48000</samplerate>
									</samplecharacteristics>
									<channelcount>2</channelcount>
								</audio>
							</media>
						</file>
						<sourcetrack>
							<mediatype>audio</mediatype>
							<trackindex>1</trackindex>
						</sourcetrack>
						<link>
							<linkclipref>clipitem-21920</linkclipref>
							<mediatype>audio</mediatype>
							<trackindex>3</trackindex>
							<clipindex>1</clipindex>
							<groupindex>1</groupindex>
						</link>
						<link>
							<linkclipref>clipitem-21921</linkclipref>
							<mediatype>audio</mediatype>
							<trackindex>4</trackindex>
							<clipindex>1</clipindex>
							<groupindex>1</groupindex>
						</link>
						<logginginfo>
							<description></description>
							<scene></scene>
							<shottake></shottake>
							<lognote></lognote>
							<good></good>
							<originalvideofilename></originalvideofilename>
							<originalaudiofilename></originalaudiofilename>
						</logginginfo>
						<colorinfo>
							<lut></lut>
							<lut1></lut1>
							<asc_sop></asc_sop>
							<asc_sat></asc_sat>
							<lut2></lut2>
						</colorinfo>
						<labels>
							<label2>Iris</label2>
						</labels>
					</clipitem>
					<enabled>TRUE</enabled>
					<locked>FALSE</locked>
					<outputchannelindex>1</outputchannelindex>
				</track>
				<track TL.SQTrackAudioKeyframeStyle="0" TL.SQTrackShy="0" TL.SQTrackExpandedHeight="15" TL.SQTrackExpanded="0" MZ.TrackTargeted="0" PannerCurrentValue="0.5" PannerIsInverted="true" PannerStartKeyframe="-91445760000000000,0.5,0,0,0,0,0,0" PannerName="Balance" currentExplodedTrackIndex="1" totalExplodedTrackCount="2" premiereTrackType="Stereo">
					<clipitem id="clipitem-21921" premiereChannelType="stereo">
						<masterclipid>masterclip-7746</masterclipid>
						<name>MyMovie_LP_v0126_HT_LoRo_24_DxStem_1-2_0201.wav</name>
						<enabled>TRUE</enabled>
						<duration>180000</duration>
						<rate>
							<timebase>24</timebase>
							<ntsc>FALSE</ntsc>
						</rate>
						<start>0</start>
						<end>192</end>
						<in>0</in>
						<out>192</out>
						<pproTicksIn>0</pproTicksIn>
						<pproTicksOut>2032128000000</pproTicksOut>
						<file id="file-6333"/>
						<sourcetrack>
							<mediatype>audio</mediatype>
							<trackindex>2</trackindex>
						</sourcetrack>
						<link>
							<linkclipref>clipitem-21920</linkclipref>
							<mediatype>audio</mediatype>
							<trackindex>3</trackindex>
							<clipindex>1</clipindex>
							<groupindex>1</groupindex>
						</link>
						<link>
							<linkclipref>clipitem-21921</linkclipref>
							<mediatype>audio</mediatype>
							<trackindex>4</trackindex>
							<clipindex>1</clipindex>
							<groupindex>1</groupindex>
						</link>
						<logginginfo>
							<description></description>
							<scene></scene>
							<shottake></shottake>
							<lognote></lognote>
							<good></good>
							<originalvideofilename></originalvideofilename>
							<originalaudiofilename></originalaudiofilename>
						</logginginfo>
						<colorinfo>
							<lut></lut>
							<lut1></lut1>
							<asc_sop></asc_sop>
							<asc_sat></asc_sat>
							<lut2></lut2>
						</colorinfo>
						<labels>
							<label2>Iris</label2>
						</labels>
					</clipitem>
					<enabled>TRUE</enabled>
					<locked>FALSE</locked>
					<outputchannelindex>2</outputchannelindex>
				</track>
				<track TL.SQTrackAudioKeyframeStyle="0" TL.SQTrackShy="0" TL.SQTrackExpandedHeight="15" TL.SQTrackExpanded="0" MZ.TrackTargeted="0" PannerCurrentValue="0.5" PannerIsInverted="true" PannerStartKeyframe="-91445760000000000,0.5,0,0,0,0,0,0" PannerName="Balance" currentExplodedTrackIndex="0" totalExplodedTrackCount="2" premiereTrackType="Stereo">
					<enabled>TRUE</enabled>
					<locked>FALSE</locked>
					<outputchannelindex>1</outputchannelindex>
				</track>
				<track TL.SQTrackAudioKeyframeStyle="0" TL.SQTrackShy="0" TL.SQTrackExpandedHeight="15" TL.SQTrackExpanded="0" MZ.TrackTargeted="0" PannerCurrentValue="0.5" PannerIsInverted="true" PannerStartKeyframe="-91445760000000000,0.5,0,0,0,0,0,0" PannerName="Balance" currentExplodedTrackIndex="1" totalExplodedTrackCount="2" premiereTrackType="Stereo">
					<enabled>TRUE</enabled>
					<locked>FALSE</locked>
					<outputchannelindex>2</outputchannelindex>
				</track>
				<track TL.SQTrackAudioKeyframeStyle="0" TL.SQTrackShy="0" TL.SQTrackExpandedHeight="15" TL.SQTrackExpanded="0" MZ.TrackTargeted="0" PannerCurrentValue="0.5" PannerIsInverted="true" PannerStartKeyframe="-91445760000000000,0.5,0,0,0,0,0,0" PannerName="Balance" currentExplodedTrackIndex="0" totalExplodedTrackCount="2" premiereTrackType="Stereo">
					<clipitem id="clipitem-21922" premiereChannelType="stereo">
						<masterclipid>masterclip-7747</masterclipid>
						<name>MyMovie_LP_v0126_HT_LoRo_24_VOStem_1-2_0201.wav</name>
						<enabled>TRUE</enabled>
						<duration>180000</duration>
						<rate>
							<timebase>24</timebase>
							<ntsc>FALSE</ntsc>
						</rate>
						<start>0</start>
						<end>192</end>
						<in>0</in>
						<out>192</out>
						<pproTicksIn>0</pproTicksIn>
						<pproTicksOut>2032128000000</pproTicksOut>
						<file id="file-6334">
							<name>MyMovie_LP_v0126_HT_LoRo_24_VOStem_1-2_0201.wav</name>
							<pathurl>file://localhost/Volumes/Media/MyMovie/Media/Media%20-%20Received/Sound/Mixes/Longplay/20230202%20Stereo%20Crashdowns/2023_02_02_Stereo%20Crashdowns_interleaved/MyMovie_LP_v0126_HT_LoRo_24_VOStem_1-2_0201.wav</pathurl>
							<rate>
								<timebase>24</timebase>
								<ntsc>FALSE</ntsc>
							</rate>
							<duration>180000</duration>
							<timecode>
								<rate>
									<timebase>24</timebase>
									<ntsc>FALSE</ntsc>
								</rate>
								<string>01:00:00:00</string>
								<frame>86400</frame>
								<displayformat>NDF</displayformat>
							</timecode>
							<media>
								<audio>
									<samplecharacteristics>
										<depth>16</depth>
										<samplerate>48000</samplerate>
									</samplecharacteristics>
									<channelcount>2</channelcount>
								</audio>
							</media>
						</file>
						<sourcetrack>
							<mediatype>audio</mediatype>
							<trackindex>1</trackindex>
						</sourcetrack>
						<link>
							<linkclipref>clipitem-21922</linkclipref>
							<mediatype>audio</mediatype>
							<trackindex>7</trackindex>
							<clipindex>1</clipindex>
							<groupindex>1</groupindex>
						</link>
						<link>
							<linkclipref>clipitem-21923</linkclipref>
							<mediatype>audio</mediatype>
							<trackindex>8</trackindex>
							<clipindex>1</clipindex>
							<groupindex>1</groupindex>
						</link>
						<logginginfo>
							<description></description>
							<scene></scene>
							<shottake></shottake>
							<lognote></lognote>
							<good></good>
							<originalvideofilename></originalvideofilename>
							<originalaudiofilename></originalaudiofilename>
						</logginginfo>
						<colorinfo>
							<lut></lut>
							<lut1></lut1>
							<asc_sop></asc_sop>
							<asc_sat></asc_sat>
							<lut2></lut2>
						</colorinfo>
						<labels>
							<label2>Caribbean</label2>
						</labels>
					</clipitem>
					<enabled>TRUE</enabled>
					<locked>FALSE</locked>
					<outputchannelindex>1</outputchannelindex>
				</track>
				<track TL.SQTrackAudioKeyframeStyle="0" TL.SQTrackShy="0" TL.SQTrackExpandedHeight="15" TL.SQTrackExpanded="0" MZ.TrackTargeted="0" PannerCurrentValue="0.5" PannerIsInverted="true" PannerStartKeyframe="-91445760000000000,0.5,0,0,0,0,0,0" PannerName="Balance" currentExplodedTrackIndex="1" totalExplodedTrackCount="2" premiereTrackType="Stereo">
					<clipitem id="clipitem-21923" premiereChannelType="stereo">
						<masterclipid>masterclip-7747</masterclipid>
						<name>MyMovie_LP_v0126_HT_LoRo_24_VOStem_1-2_0201.wav</name>
						<enabled>TRUE</enabled>
						<duration>180000</duration>
						<rate>
							<timebase>24</timebase>
							<ntsc>FALSE</ntsc>
						</rate>
						<start>0</start>
						<end>192</end>
						<in>0</in>
						<out>192</out>
						<pproTicksIn>0</pproTicksIn>
						<pproTicksOut>2032128000000</pproTicksOut>
						<file id="file-6334"/>
						<sourcetrack>
							<mediatype>audio</mediatype>
							<trackindex>2</trackindex>
						</sourcetrack>
						<link>
							<linkclipref>clipitem-21922</linkclipref>
							<mediatype>audio</mediatype>
							<trackindex>7</trackindex>
							<clipindex>1</clipindex>
							<groupindex>1</groupindex>
						</link>
						<link>
							<linkclipref>clipitem-21923</linkclipref>
							<mediatype>audio</mediatype>
							<trackindex>8</trackindex>
							<clipindex>1</clipindex>
							<groupindex>1</groupindex>
						</link>
						<logginginfo>
							<description></description>
							<scene></scene>
							<shottake></shottake>
							<lognote></lognote>
							<good></good>
							<originalvideofilename></originalvideofilename>
							<originalaudiofilename></originalaudiofilename>
						</logginginfo>
						<colorinfo>
							<lut></lut>
							<lut1></lut1>
							<asc_sop></asc_sop>
							<asc_sat></asc_sat>
							<lut2></lut2>
						</colorinfo>
						<labels>
							<label2>Caribbean</label2>
						</labels>
					</clipitem>
					<enabled>TRUE</enabled>
					<locked>FALSE</locked>
					<outputchannelindex>2</outputchannelindex>
				</track>
				<track TL.SQTrackAudioKeyframeStyle="0" TL.SQTrackShy="0" TL.SQTrackExpandedHeight="15" TL.SQTrackExpanded="0" MZ.TrackTargeted="0" PannerCurrentValue="0.5" PannerIsInverted="true" PannerStartKeyframe="-91445760000000000,0.5,0,0,0,0,0,0" PannerName="Balance" currentExplodedTrackIndex="0" totalExplodedTrackCount="2" premiereTrackType="Stereo">
					<clipitem id="clipitem-21924" premiereChannelType="stereo">
						<masterclipid>masterclip-7748</masterclipid>
						<name>MyMovie_LP_v0126_HT_LoRo_24_LGStem_1-2_0201.wav</name>
						<enabled>TRUE</enabled>
						<duration>180000</duration>
						<rate>
							<timebase>24</timebase>
							<ntsc>FALSE</ntsc>
						</rate>
						<start>0</start>
						<end>192</end>
						<in>0</in>
						<out>192</out>
						<pproTicksIn>0</pproTicksIn>
						<pproTicksOut>2032128000000</pproTicksOut>
						<file id="file-6335">
							<name>MyMovie_LP_v0126_HT_LoRo_24_LGStem_1-2_0201.wav</name>
							<pathurl>file://localhost/Volumes/Media/MyMovie/Media/Media%20-%20Received/Sound/Mixes/Longplay/20230202%20Stereo%20Crashdowns/2023_02_02_Stereo%20Crashdowns_interleaved/MyMovie_LP_v0126_HT_LoRo_24_LGStem_1-2_0201.wav</pathurl>
							<rate>
								<timebase>24</timebase>
								<ntsc>FALSE</ntsc>
							</rate>
							<duration>180000</duration>
							<timecode>
								<rate>
									<timebase>24</timebase>
									<ntsc>FALSE</ntsc>
								</rate>
								<string>01:00:00:00</string>
								<frame>86400</frame>
								<displayformat>NDF</displayformat>
							</timecode>
							<media>
								<audio>
									<samplecharacteristics>
										<depth>16</depth>
										<samplerate>48000</samplerate>
									</samplecharacteristics>
									<channelcount>2</channelcount>
								</audio>
							</media>
						</file>
						<sourcetrack>
							<mediatype>audio</mediatype>
							<trackindex>1</trackindex>
						</sourcetrack>
						<link>
							<linkclipref>clipitem-21924</linkclipref>
							<mediatype>audio</mediatype>
							<trackindex>9</trackindex>
							<clipindex>1</clipindex>
							<groupindex>1</groupindex>
						</link>
						<link>
							<linkclipref>clipitem-21925</linkclipref>
							<mediatype>audio</mediatype>
							<trackindex>10</trackindex>
							<clipindex>1</clipindex>
							<groupindex>1</groupindex>
						</link>
						<logginginfo>
							<description></description>
							<scene></scene>
							<shottake></shottake>
							<lognote></lognote>
							<good></good>
							<originalvideofilename></originalvideofilename>
							<originalaudiofilename></originalaudiofilename>
						</logginginfo>
						<colorinfo>
							<lut></lut>
							<lut1></lut1>
							<asc_sop></asc_sop>
							<asc_sat></asc_sat>
							<lut2></lut2>
						</colorinfo>
						<labels>
							<label2>Violet</label2>
						</labels>
					</clipitem>
					<enabled>TRUE</enabled>
					<locked>FALSE</locked>
					<outputchannelindex>1</outputchannelindex>
				</track>
				<track TL.SQTrackAudioKeyframeStyle="0" TL.SQTrackShy="0" TL.SQTrackExpandedHeight="15" TL.SQTrackExpanded="0" MZ.TrackTargeted="0" PannerCurrentValue="0.5" PannerIsInverted="true" PannerStartKeyframe="-91445760000000000,0.5,0,0,0,0,0,0" PannerName="Balance" currentExplodedTrackIndex="1" totalExplodedTrackCount="2" premiereTrackType="Stereo">
					<clipitem id="clipitem-21925" premiereChannelType="stereo">
						<masterclipid>masterclip-7748</masterclipid>
						<name>MyMovie_LP_v0126_HT_LoRo_24_LGStem_1-2_0201.wav</name>
						<enabled>TRUE</enabled>
						<duration>180000</duration>
						<rate>
							<timebase>24</timebase>
							<ntsc>FALSE</ntsc>
						</rate>
						<start>0</start>
						<end>192</end>
						<in>0</in>
						<out>192</out>
						<pproTicksIn>0</pproTicksIn>
						<pproTicksOut>2032128000000</pproTicksOut>
						<file id="file-6335"/>
						<sourcetrack>
							<mediatype>audio</mediatype>
							<trackindex>2</trackindex>
						</sourcetrack>
						<link>
							<linkclipref>clipitem-21924</linkclipref>
							<mediatype>audio</mediatype>
							<trackindex>9</trackindex>
							<clipindex>1</clipindex>
							<groupindex>1</groupindex>
						</link>
						<link>
							<linkclipref>clipitem-21925</linkclipref>
							<mediatype>audio</mediatype>
							<trackindex>10</trackindex>
							<clipindex>1</clipindex>
							<groupindex>1</groupindex>
						</link>
						<logginginfo>
							<description></description>
							<scene></scene>
							<shottake></shottake>
							<lognote></lognote>
							<good></good>
							<originalvideofilename></originalvideofilename>
							<originalaudiofilename></originalaudiofilename>
						</logginginfo>
						<colorinfo>
							<lut></lut>
							<lut1></lut1>
							<asc_sop></asc_sop>
							<asc_sat></asc_sat>
							<lut2></lut2>
						</colorinfo>
						<labels>
							<label2>Violet</label2>
						</labels>
					</clipitem>
					<enabled>TRUE</enabled>
					<locked>FALSE</locked>
					<outputchannelindex>2</outputchannelindex>
				</track>
				<track TL.SQTrackAudioKeyframeStyle="0" TL.SQTrackShy="0" TL.SQTrackExpandedHeight="15" TL.SQTrackExpanded="0" MZ.TrackTargeted="0" PannerCurrentValue="0.5" PannerIsInverted="true" PannerStartKeyframe="-91445760000000000,0.5,0,0,0,0,0,0" PannerName="Balance" currentExplodedTrackIndex="0" totalExplodedTrackCount="2" premiereTrackType="Stereo">
					<clipitem id="clipitem-21926" premiereChannelType="stereo">
						<masterclipid>masterclip-7749</masterclipid>
						<name>MyMovie_LP_v0126_HT_LoRo_24_BGStem_1-2_0201.wav</name>
						<enabled>TRUE</enabled>
						<duration>180000</duration>
						<rate>
							<timebase>24</timebase>
							<ntsc>FALSE</ntsc>
						</rate>
						<start>0</start>
						<end>192</end>
						<in>0</in>
						<out>192</out>
						<pproTicksIn>0</pproTicksIn>
						<pproTicksOut>2032128000000</pproTicksOut>
						<file id="file-6336">
							<name>MyMovie_LP_v0126_HT_LoRo_24_BGStem_1-2_0201.wav</name>
							<pathurl>file://localhost/Volumes/Media/MyMovie/Media/Media%20-%20Received/Sound/Mixes/Longplay/20230202%20Stereo%20Crashdowns/2023_02_02_Stereo%20Crashdowns_interleaved/MyMovie_LP_v0126_HT_LoRo_24_BGStem_1-2_0201.wav</pathurl>
							<rate>
								<timebase>24</timebase>
								<ntsc>FALSE</ntsc>
							</rate>
							<duration>180000</duration>
							<timecode>
								<rate>
									<timebase>24</timebase>
									<ntsc>FALSE</ntsc>
								</rate>
								<string>00:59:59:00</string>
								<frame>86376</frame>
								<displayformat>NDF</displayformat>
							</timecode>
							<media>
								<audio>
									<samplecharacteristics>
										<depth>16</depth>
										<samplerate>48000</samplerate>
									</samplecharacteristics>
									<channelcount>2</channelcount>
								</audio>
							</media>
						</file>
						<sourcetrack>
							<mediatype>audio</mediatype>
							<trackindex>1</trackindex>
						</sourcetrack>
						<link>
							<linkclipref>clipitem-21926</linkclipref>
							<mediatype>audio</mediatype>
							<trackindex>11</trackindex>
							<clipindex>1</clipindex>
							<groupindex>1</groupindex>
						</link>
						<link>
							<linkclipref>clipitem-21927</linkclipref>
							<mediatype>audio</mediatype>
							<trackindex>12</trackindex>
							<clipindex>1</clipindex>
							<groupindex>1</groupindex>
						</link>
						<logginginfo>
							<description></description>
							<scene></scene>
							<shottake></shottake>
							<lognote></lognote>
							<good></good>
							<originalvideofilename></originalvideofilename>
							<originalaudiofilename></originalaudiofilename>
						</logginginfo>
						<colorinfo>
							<lut></lut>
							<lut1></lut1>
							<asc_sop></asc_sop>
							<asc_sat></asc_sat>
							<lut2></lut2>
						</colorinfo>
						<labels>
							<label2>Violet</label2>
						</labels>
					</clipitem>
					<enabled>TRUE</enabled>
					<locked>FALSE</locked>
					<outputchannelindex>1</outputchannelindex>
				</track>
				<track TL.SQTrackAudioKeyframeStyle="0" TL.SQTrackShy="0" TL.SQTrackExpandedHeight="15" TL.SQTrackExpanded="0" MZ.TrackTargeted="0" PannerCurrentValue="0.5" PannerIsInverted="true" PannerStartKeyframe="-91445760000000000,0.5,0,0,0,0,0,0" PannerName="Balance" currentExplodedTrackIndex="1" totalExplodedTrackCount="2" premiereTrackType="Stereo">
					<clipitem id="clipitem-21927" premiereChannelType="stereo">
						<masterclipid>masterclip-7749</masterclipid>
						<name>MyMovie_LP_v0126_HT_LoRo_24_BGStem_1-2_0201.wav</name>
						<enabled>TRUE</enabled>
						<duration>180000</duration>
						<rate>
							<timebase>24</timebase>
							<ntsc>FALSE</ntsc>
						</rate>
						<start>0</start>
						<end>192</end>
						<in>0</in>
						<out>192</out>
						<pproTicksIn>0</pproTicksIn>
						<pproTicksOut>2032128000000</pproTicksOut>
						<file id="file-6336"/>
						<sourcetrack>
							<mediatype>audio</mediatype>
							<trackindex>2</trackindex>
						</sourcetrack>
						<link>
							<linkclipref>clipitem-21926</linkclipref>
							<mediatype>audio</mediatype>
							<trackindex>11</trackindex>
							<clipindex>1</clipindex>
							<groupindex>1</groupindex>
						</link>
						<link>
							<linkclipref>clipitem-21927</linkclipref>
							<mediatype>audio</mediatype>
							<trackindex>12</trackindex>
							<clipindex>1</clipindex>
							<groupindex>1</groupindex>
						</link>
						<logginginfo>
							<description></description>
							<scene></scene>
							<shottake></shottake>
							<lognote></lognote>
							<good></good>
							<originalvideofilename></originalvideofilename>
							<originalaudiofilename></originalaudiofilename>
						</logginginfo>
						<colorinfo>
							<lut></lut>
							<lut1></lut1>
							<asc_sop></asc_sop>
							<asc_sat></asc_sat>
							<lut2></lut2>
						</colorinfo>
						<labels>
							<label2>Violet</label2>
						</labels>
					</clipitem>
					<enabled>TRUE</enabled>
					<locked>FALSE</locked>
					<outputchannelindex>2</outputchannelindex>
				</track>
				<track TL.SQTrackAudioKeyframeStyle="0" TL.SQTrackShy="0" TL.SQTrackExpandedHeight="15" TL.SQTrackExpanded="0" MZ.TrackTargeted="0" PannerCurrentValue="0.5" PannerIsInverted="true" PannerStartKeyframe="-91445760000000000,0.5,0,0,0,0,0,0" PannerName="Balance" currentExplodedTrackIndex="0" totalExplodedTrackCount="2" premiereTrackType="Stereo">
					<clipitem id="clipitem-21928" premiereChannelType="stereo">
						<masterclipid>masterclip-7750</masterclipid>
						<name>MyMovie_LP_v0126_HT_LoRo_24_FoleyPFxStem_1-2_0201.wav</name>
						<enabled>TRUE</enabled>
						<duration>180000</duration>
						<rate>
							<timebase>24</timebase>
							<ntsc>FALSE</ntsc>
						</rate>
						<start>0</start>
						<end>192</end>
						<in>0</in>
						<out>192</out>
						<pproTicksIn>0</pproTicksIn>
						<pproTicksOut>2032128000000</pproTicksOut>
						<file id="file-6337">
							<name>MyMovie_LP_v0126_HT_LoRo_24_FoleyPFxStem_1-2_0201.wav</name>
							<pathurl>file://localhost/Volumes/Media/MyMovie/Media/Media%20-%20Received/Sound/Mixes/Longplay/20230202%20Stereo%20Crashdowns/2023_02_02_Stereo%20Crashdowns_interleaved/MyMovie_LP_v0126_HT_LoRo_24_FoleyPFxStem_1-2_0201.wav</pathurl>
							<rate>
								<timebase>24</timebase>
								<ntsc>FALSE</ntsc>
							</rate>
							<duration>180000</duration>
							<timecode>
								<rate>
									<timebase>24</timebase>
									<ntsc>FALSE</ntsc>
								</rate>
								<string>01:00:00:00</string>
								<frame>86400</frame>
								<displayformat>NDF</displayformat>
							</timecode>
							<media>
								<audio>
									<samplecharacteristics>
										<depth>16</depth>
										<samplerate>48000</samplerate>
									</samplecharacteristics>
									<channelcount>2</channelcount>
								</audio>
							</media>
						</file>
						<sourcetrack>
							<mediatype>audio</mediatype>
							<trackindex>1</trackindex>
						</sourcetrack>
						<link>
							<linkclipref>clipitem-21928</linkclipref>
							<mediatype>audio</mediatype>
							<trackindex>13</trackindex>
							<clipindex>1</clipindex>
							<groupindex>1</groupindex>
						</link>
						<link>
							<linkclipref>clipitem-21929</linkclipref>
							<mediatype>audio</mediatype>
							<trackindex>14</trackindex>
							<clipindex>1</clipindex>
							<groupindex>1</groupindex>
						</link>
						<logginginfo>
							<description></description>
							<scene></scene>
							<shottake></shottake>
							<lognote></lognote>
							<good></good>
							<originalvideofilename></originalvideofilename>
							<originalaudiofilename></originalaudiofilename>
						</logginginfo>
						<colorinfo>
							<lut></lut>
							<lut1></lut1>
							<asc_sop></asc_sop>
							<asc_sat></asc_sat>
							<lut2></lut2>
						</colorinfo>
						<labels>
							<label2>Violet</label2>
						</labels>
					</clipitem>
					<enabled>TRUE</enabled>
					<locked>FALSE</locked>
					<outputchannelindex>1</outputchannelindex>
				</track>
				<track TL.SQTrackAudioKeyframeStyle="0" TL.SQTrackShy="0" TL.SQTrackExpandedHeight="15" TL.SQTrackExpanded="0" MZ.TrackTargeted="0" PannerCurrentValue="0.5" PannerIsInverted="true" PannerStartKeyframe="-91445760000000000,0.5,0,0,0,0,0,0" PannerName="Balance" currentExplodedTrackIndex="1" totalExplodedTrackCount="2" premiereTrackType="Stereo">
					<clipitem id="clipitem-21929" premiereChannelType="stereo">
						<masterclipid>masterclip-7750</masterclipid>
						<name>MyMovie_LP_v0126_HT_LoRo_24_FoleyPFxStem_1-2_0201.wav</name>
						<enabled>TRUE</enabled>
						<duration>180000</duration>
						<rate>
							<timebase>24</timebase>
							<ntsc>FALSE</ntsc>
						</rate>
						<start>0</start>
						<end>192</end>
						<in>0</in>
						<out>192</out>
						<pproTicksIn>0</pproTicksIn>
						<pproTicksOut>2032128000000</pproTicksOut>
						<file id="file-6337"/>
						<sourcetrack>
							<mediatype>audio</mediatype>
							<trackindex>2</trackindex>
						</sourcetrack>
						<link>
							<linkclipref>clipitem-21928</linkclipref>
							<mediatype>audio</mediatype>
							<trackindex>13</trackindex>
							<clipindex>1</clipindex>
							<groupindex>1</groupindex>
						</link>
						<link>
							<linkclipref>clipitem-21929</linkclipref>
							<mediatype>audio</mediatype>
							<trackindex>14</trackindex>
							<clipindex>1</clipindex>
							<groupindex>1</groupindex>
						</link>
						<logginginfo>
							<description></description>
							<scene></scene>
							<shottake></shottake>
							<lognote></lognote>
							<good></good>
							<originalvideofilename></originalvideofilename>
							<originalaudiofilename></originalaudiofilename>
						</logginginfo>
						<colorinfo>
							<lut></lut>
							<lut1></lut1>
							<asc_sop></asc_sop>
							<asc_sat></asc_sat>
							<lut2></lut2>
						</colorinfo>
						<labels>
							<label2>Violet</label2>
						</labels>
					</clipitem>
					<enabled>TRUE</enabled>
					<locked>FALSE</locked>
					<outputchannelindex>2</outputchannelindex>
				</track>
				<track TL.SQTrackAudioKeyframeStyle="0" TL.SQTrackShy="0" TL.SQTrackExpandedHeight="15" TL.SQTrackExpanded="0" MZ.TrackTargeted="0" PannerCurrentValue="0.5" PannerIsInverted="true" PannerStartKeyframe="-91445760000000000,0.5,0,0,0,0,0,0" PannerName="Balance" currentExplodedTrackIndex="0" totalExplodedTrackCount="2" premiereTrackType="Stereo">
					<clipitem id="clipitem-21930" premiereChannelType="stereo">
						<masterclipid>masterclip-7751</masterclipid>
						<name>MyMovie_LP_v0126_HT_LoRo_24_FoleyStem_1-2_0201.wav</name>
						<enabled>TRUE</enabled>
						<duration>180000</duration>
						<rate>
							<timebase>24</timebase>
							<ntsc>FALSE</ntsc>
						</rate>
						<start>0</start>
						<end>192</end>
						<in>0</in>
						<out>192</out>
						<pproTicksIn>0</pproTicksIn>
						<pproTicksOut>2032128000000</pproTicksOut>
						<file id="file-6338">
							<name>MyMovie_LP_v0126_HT_LoRo_24_FoleyStem_1-2_0201.wav</name>
							<pathurl>file://localhost/Volumes/Media/MyMovie/Media/Media%20-%20Received/Sound/Mixes/Longplay/20230202%20Stereo%20Crashdowns/2023_02_02_Stereo%20Crashdowns_interleaved/MyMovie_LP_v0126_HT_LoRo_24_FoleyStem_1-2_0201.wav</pathurl>
							<rate>
								<timebase>24</timebase>
								<ntsc>FALSE</ntsc>
							</rate>
							<duration>180000</duration>
							<timecode>
								<rate>
									<timebase>24</timebase>
									<ntsc>FALSE</ntsc>
								</rate>
								<string>01:00:00:00</string>
								<frame>86400</frame>
								<displayformat>NDF</displayformat>
							</timecode>
							<media>
								<audio>
									<samplecharacteristics>
										<depth>16</depth>
										<samplerate>48000</samplerate>
									</samplecharacteristics>
									<channelcount>2</channelcount>
								</audio>
							</media>
						</file>
						<sourcetrack>
							<mediatype>audio</mediatype>
							<trackindex>1</trackindex>
						</sourcetrack>
						<link>
							<linkclipref>clipitem-21930</linkclipref>
							<mediatype>audio</mediatype>
							<trackindex>15</trackindex>
							<clipindex>1</clipindex>
							<groupindex>1</groupindex>
						</link>
						<link>
							<linkclipref>clipitem-21931</linkclipref>
							<mediatype>audio</mediatype>
							<trackindex>16</trackindex>
							<clipindex>1</clipindex>
							<groupindex>1</groupindex>
						</link>
						<logginginfo>
							<description></description>
							<scene></scene>
							<shottake></shottake>
							<lognote></lognote>
							<good></good>
							<originalvideofilename></originalvideofilename>
							<originalaudiofilename></originalaudiofilename>
						</logginginfo>
						<colorinfo>
							<lut></lut>
							<lut1></lut1>
							<asc_sop></asc_sop>
							<asc_sat></asc_sat>
							<lut2></lut2>
						</colorinfo>
						<labels>
							<label2>Violet</label2>
						</labels>
					</clipitem>
					<enabled>TRUE</enabled>
					<locked>FALSE</locked>
					<outputchannelindex>1</outputchannelindex>
				</track>
				<track TL.SQTrackAudioKeyframeStyle="0" TL.SQTrackShy="0" TL.SQTrackExpandedHeight="15" TL.SQTrackExpanded="0" MZ.TrackTargeted="0" PannerCurrentValue="0.5" PannerIsInverted="true" PannerStartKeyframe="-91445760000000000,0.5,0,0,0,0,0,0" PannerName="Balance" currentExplodedTrackIndex="1" totalExplodedTrackCount="2" premiereTrackType="Stereo">
					<clipitem id="clipitem-21931" premiereChannelType="stereo">
						<masterclipid>masterclip-7751</masterclipid>
						<name>MyMovie_LP_v0126_HT_LoRo_24_FoleyStem_1-2_0201.wav</name>
						<enabled>TRUE</enabled>
						<duration>180000</duration>
						<rate>
							<timebase>24</timebase>
							<ntsc>FALSE</ntsc>
						</rate>
						<start>0</start>
						<end>192</end>
						<in>0</in>
						<out>192</out>
						<pproTicksIn>0</pproTicksIn>
						<pproTicksOut>2032128000000</pproTicksOut>
						<file id="file-6338"/>
						<sourcetrack>
							<mediatype>audio</mediatype>
							<trackindex>2</trackindex>
						</sourcetrack>
						<link>
							<linkclipref>clipitem-21930</linkclipref>
							<mediatype>audio</mediatype>
							<trackindex>15</trackindex>
							<clipindex>1</clipindex>
							<groupindex>1</groupindex>
						</link>
						<link>
							<linkclipref>clipitem-21931</linkclipref>
							<mediatype>audio</mediatype>
							<trackindex>16</trackindex>
							<clipindex>1</clipindex>
							<groupindex>1</groupindex>
						</link>
						<logginginfo>
							<description></description>
							<scene></scene>
							<shottake></shottake>
							<lognote></lognote>
							<good></good>
							<originalvideofilename></originalvideofilename>
							<originalaudiofilename></originalaudiofilename>
						</logginginfo>
						<colorinfo>
							<lut></lut>
							<lut1></lut1>
							<asc_sop></asc_sop>
							<asc_sat></asc_sat>
							<lut2></lut2>
						</colorinfo>
						<labels>
							<label2>Violet</label2>
						</labels>
					</clipitem>
					<enabled>TRUE</enabled>
					<locked>FALSE</locked>
					<outputchannelindex>2</outputchannelindex>
				</track>
				<track TL.SQTrackAudioKeyframeStyle="0" TL.SQTrackShy="0" TL.SQTrackExpandedHeight="15" TL.SQTrackExpanded="0" MZ.TrackTargeted="0" PannerCurrentValue="0.5" PannerIsInverted="true" PannerStartKeyframe="-91445760000000000,0.5,0,0,0,0,0,0" PannerName="Balance" currentExplodedTrackIndex="0" totalExplodedTrackCount="2" premiereTrackType="Stereo">
					<clipitem id="clipitem-21932" premiereChannelType="stereo">
						<masterclipid>masterclip-7752</masterclipid>
						<name>MyMovie_LP_v0126_HT_LoRo_24_FxStem_1-2_0201.wav</name>
						<enabled>TRUE</enabled>
						<duration>180000</duration>
						<rate>
							<timebase>24</timebase>
							<ntsc>FALSE</ntsc>
						</rate>
						<start>0</start>
						<end>192</end>
						<in>0</in>
						<out>192</out>
						<pproTicksIn>0</pproTicksIn>
						<pproTicksOut>2032128000000</pproTicksOut>
						<file id="file-6339">
							<name>MyMovie_LP_v0126_HT_LoRo_24_FxStem_1-2_0201.wav</name>
							<pathurl>file://localhost/Volumes/Media/MyMovie/Media/Media%20-%20Received/Sound/Mixes/Longplay/20230202%20Stereo%20Crashdowns/2023_02_02_Stereo%20Crashdowns_interleaved/MyMovie_LP_v0126_HT_LoRo_24_FxStem_1-2_0201.wav</pathurl>
							<rate>
								<timebase>24</timebase>
								<ntsc>FALSE</ntsc>
							</rate>
							<duration>180000</duration>
							<timecode>
								<rate>
									<timebase>24</timebase>
									<ntsc>FALSE</ntsc>
								</rate>
								<string>01:00:00:00</string>
								<frame>86400</frame>
								<displayformat>NDF</displayformat>
							</timecode>
							<media>
								<audio>
									<samplecharacteristics>
										<depth>16</depth>
										<samplerate>48000</samplerate>
									</samplecharacteristics>
									<channelcount>2</channelcount>
								</audio>
							</media>
						</file>
						<sourcetrack>
							<mediatype>audio</mediatype>
							<trackindex>1</trackindex>
						</sourcetrack>
						<link>
							<linkclipref>clipitem-21932</linkclipref>
							<mediatype>audio</mediatype>
							<trackindex>17</trackindex>
							<clipindex>1</clipindex>
							<groupindex>1</groupindex>
						</link>
						<link>
							<linkclipref>clipitem-21933</linkclipref>
							<mediatype>audio</mediatype>
							<trackindex>18</trackindex>
							<clipindex>1</clipindex>
							<groupindex>1</groupindex>
						</link>
						<logginginfo>
							<description></description>
							<scene></scene>
							<shottake></shottake>
							<lognote></lognote>
							<good></good>
							<originalvideofilename></originalvideofilename>
							<originalaudiofilename></originalaudiofilename>
						</logginginfo>
						<colorinfo>
							<lut></lut>
							<lut1></lut1>
							<asc_sop></asc_sop>
							<asc_sat></asc_sat>
							<lut2></lut2>
						</colorinfo>
						<labels>
							<label2>Violet</label2>
						</labels>
					</clipitem>
					<enabled>TRUE</enabled>
					<locked>FALSE</locked>
					<outputchannelindex>1</outputchannelindex>
				</track>
				<track TL.SQTrackAudioKeyframeStyle="0" TL.SQTrackShy="0" TL.SQTrackExpandedHeight="15" TL.SQTrackExpanded="0" MZ.TrackTargeted="0" PannerCurrentValue="0.5" PannerIsInverted="true" PannerStartKeyframe="-91445760000000000,0.5,0,0,0,0,0,0" PannerName="Balance" currentExplodedTrackIndex="1" totalExplodedTrackCount="2" premiereTrackType="Stereo">
					<clipitem id="clipitem-21933" premiereChannelType="stereo">
						<masterclipid>masterclip-7752</masterclipid>
						<name>MyMovie_LP_v0126_HT_LoRo_24_FxStem_1-2_0201.wav</name>
						<enabled>TRUE</enabled>
						<duration>180000</duration>
						<rate>
							<timebase>24</timebase>
							<ntsc>FALSE</ntsc>
						</rate>
						<start>0</start>
						<end>192</end>
						<in>0</in>
						<out>192</out>
						<pproTicksIn>0</pproTicksIn>
						<pproTicksOut>2032128000000</pproTicksOut>
						<file id="file-6339"/>
						<sourcetrack>
							<mediatype>audio</mediatype>
							<trackindex>2</trackindex>
						</sourcetrack>
						<link>
							<linkclipref>clipitem-21932</linkclipref>
							<mediatype>audio</mediatype>
							<trackindex>17</trackindex>
							<clipindex>1</clipindex>
							<groupindex>1</groupindex>
						</link>
						<link>
							<linkclipref>clipitem-21933</linkclipref>
							<mediatype>audio</mediatype>
							<trackindex>18</trackindex>
							<clipindex>1</clipindex>
							<groupindex>1</groupindex>
						</link>
						<logginginfo>
							<description></description>
							<scene></scene>
							<shottake></shottake>
							<lognote></lognote>
							<good></good>
							<originalvideofilename></originalvideofilename>
							<originalaudiofilename></originalaudiofilename>
						</logginginfo>
						<colorinfo>
							<lut></lut>
							<lut1></lut1>
							<asc_sop></asc_sop>
							<asc_sat></asc_sat>
							<lut2></lut2>
						</colorinfo>
						<labels>
							<label2>Violet</label2>
						</labels>
					</clipitem>
					<enabled>TRUE</enabled>
					<locked>FALSE</locked>
					<outputchannelindex>2</outputchannelindex>
				</track>
				<track TL.SQTrackAudioKeyframeStyle="0" TL.SQTrackShy="0" TL.SQTrackExpandedHeight="15" TL.SQTrackExpanded="0" MZ.TrackTargeted="0" PannerCurrentValue="0.5" PannerIsInverted="true" PannerStartKeyframe="-91445760000000000,0.5,0,0,0,0,0,0" PannerName="Balance" currentExplodedTrackIndex="0" totalExplodedTrackCount="2" premiereTrackType="Stereo">
					<clipitem id="clipitem-21934" premiereChannelType="stereo">
						<masterclipid>masterclip-7753</masterclipid>
						<name>MyMovie_LP_v0126_HT_LoRo_24_FxVoxStem_1-2_0201.wav</name>
						<enabled>TRUE</enabled>
						<duration>180000</duration>
						<rate>
							<timebase>24</timebase>
							<ntsc>FALSE</ntsc>
						</rate>
						<start>0</start>
						<end>192</end>
						<in>0</in>
						<out>192</out>
						<pproTicksIn>0</pproTicksIn>
						<pproTicksOut>2032128000000</pproTicksOut>
						<file id="file-6340">
							<name>MyMovie_LP_v0126_HT_LoRo_24_FxVoxStem_1-2_0201.wav</name>
							<pathurl>file://localhost/Volumes/Media/MyMovie/Media/Media%20-%20Received/Sound/Mixes/Longplay/20230202%20Stereo%20Crashdowns/2023_02_02_Stereo%20Crashdowns_interleaved/MyMovie_LP_v0126_HT_LoRo_24_FxVoxStem_1-2_0201.wav</pathurl>
							<rate>
								<timebase>24</timebase>
								<ntsc>FALSE</ntsc>
							</rate>
							<duration>180000</duration>
							<timecode>
								<rate>
									<timebase>24</timebase>
									<ntsc>FALSE</ntsc>
								</rate>
								<string>01:00:00:00</string>
								<frame>86400</frame>
								<displayformat>NDF</displayformat>
							</timecode>
							<media>
								<audio>
									<samplecharacteristics>
										<depth>16</depth>
										<samplerate>48000</samplerate>
									</samplecharacteristics>
									<channelcount>2</channelcount>
								</audio>
							</media>
						</file>
						<sourcetrack>
							<mediatype>audio</mediatype>
							<trackindex>1</trackindex>
						</sourcetrack>
						<link>
							<linkclipref>clipitem-21934</linkclipref>
							<mediatype>audio</mediatype>
							<trackindex>19</trackindex>
							<clipindex>1</clipindex>
							<groupindex>1</groupindex>
						</link>
						<link>
							<linkclipref>clipitem-21935</linkclipref>
							<mediatype>audio</mediatype>
							<trackindex>20</trackindex>
							<clipindex>1</clipindex>
							<groupindex>1</groupindex>
						</link>
						<logginginfo>
							<description></description>
							<scene></scene>
							<shottake></shottake>
							<lognote></lognote>
							<good></good>
							<originalvideofilename></originalvideofilename>
							<originalaudiofilename></originalaudiofilename>
						</logginginfo>
						<colorinfo>
							<lut></lut>
							<lut1></lut1>
							<asc_sop></asc_sop>
							<asc_sat></asc_sat>
							<lut2></lut2>
						</colorinfo>
						<labels>
							<label2>Violet</label2>
						</labels>
					</clipitem>
					<enabled>TRUE</enabled>
					<locked>FALSE</locked>
					<outputchannelindex>1</outputchannelindex>
				</track>
				<track TL.SQTrackAudioKeyframeStyle="0" TL.SQTrackShy="0" TL.SQTrackExpandedHeight="15" TL.SQTrackExpanded="0" MZ.TrackTargeted="0" PannerCurrentValue="0.5" PannerIsInverted="true" PannerStartKeyframe="-91445760000000000,0.5,0,0,0,0,0,0" PannerName="Balance" currentExplodedTrackIndex="1" totalExplodedTrackCount="2" premiereTrackType="Stereo">
					<clipitem id="clipitem-21935" premiereChannelType="stereo">
						<masterclipid>masterclip-7753</masterclipid>
						<name>MyMovie_LP_v0126_HT_LoRo_24_FxVoxStem_1-2_0201.wav</name>
						<enabled>TRUE</enabled>
						<duration>180000</duration>
						<rate>
							<timebase>24</timebase>
							<ntsc>FALSE</ntsc>
						</rate>
						<start>0</start>
						<end>192</end>
						<in>0</in>
						<out>192</out>
						<pproTicksIn>0</pproTicksIn>
						<pproTicksOut>2032128000000</pproTicksOut>
						<file id="file-6340"/>
						<sourcetrack>
							<mediatype>audio</mediatype>
							<trackindex>2</trackindex>
						</sourcetrack>
						<link>
							<linkclipref>clipitem-21934</linkclipref>
							<mediatype>audio</mediatype>
							<trackindex>19</trackindex>
							<clipindex>1</clipindex>
							<groupindex>1</groupindex>
						</link>
						<link>
							<linkclipref>clipitem-21935</linkclipref>
							<mediatype>audio</mediatype>
							<trackindex>20</trackindex>
							<clipindex>1</clipindex>
							<groupindex>1</groupindex>
						</link>
						<logginginfo>
							<description></description>
							<scene></scene>
							<shottake></shottake>
							<lognote></lognote>
							<good></good>
							<originalvideofilename></originalvideofilename>
							<originalaudiofilename></originalaudiofilename>
						</logginginfo>
						<colorinfo>
							<lut></lut>
							<lut1></lut1>
							<asc_sop></asc_sop>
							<asc_sat></asc_sat>
							<lut2></lut2>
						</colorinfo>
						<labels>
							<label2>Violet</label2>
						</labels>
					</clipitem>
					<enabled>TRUE</enabled>
					<locked>FALSE</locked>
					<outputchannelindex>2</outputchannelindex>
				</track>
				<track TL.SQTrackAudioKeyframeStyle="0" TL.SQTrackShy="0" TL.SQTrackExpandedHeight="15" TL.SQTrackExpanded="0" MZ.TrackTargeted="0" PannerCurrentValue="0.5" PannerIsInverted="true" PannerStartKeyframe="-91445760000000000,0.5,0,0,0,0,0,0" PannerName="Balance" currentExplodedTrackIndex="0" totalExplodedTrackCount="2" premiereTrackType="Stereo">
					<clipitem id="clipitem-21936" premiereChannelType="stereo">
						<masterclipid>masterclip-7754</masterclipid>
						<name>MyMovie_LP_v0126_HT_LoRo_24_MxScoreStem_1-2_0201.wav</name>
						<enabled>TRUE</enabled>
						<duration>180000</duration>
						<rate>
							<timebase>24</timebase>
							<ntsc>FALSE</ntsc>
						</rate>
						<start>0</start>
						<end>192</end>
						<in>0</in>
						<out>192</out>
						<pproTicksIn>0</pproTicksIn>
						<pproTicksOut>2032128000000</pproTicksOut>
						<file id="file-6341">
							<name>MyMovie_LP_v0126_HT_LoRo_24_MxScoreStem_1-2_0201.wav</name>
							<pathurl>file://localhost/Volumes/Media/MyMovie/Media/Media%20-%20Received/Sound/Mixes/Longplay/20230202%20Stereo%20Crashdowns/2023_02_02_Stereo%20Crashdowns_interleaved/MyMovie_LP_v0126_HT_LoRo_24_MxScoreStem_1-2_0201.wav</pathurl>
							<rate>
								<timebase>24</timebase>
								<ntsc>FALSE</ntsc>
							</rate>
							<duration>180000</duration>
							<timecode>
								<rate>
									<timebase>24</timebase>
									<ntsc>FALSE</ntsc>
								</rate>
								<string>01:00:00:00</string>
								<frame>86400</frame>
								<displayformat>NDF</displayformat>
							</timecode>
							<media>
								<audio>
									<samplecharacteristics>
										<depth>16</depth>
										<samplerate>48000</samplerate>
									</samplecharacteristics>
									<channelcount>2</channelcount>
								</audio>
							</media>
						</file>
						<sourcetrack>
							<mediatype>audio</mediatype>
							<trackindex>1</trackindex>
						</sourcetrack>
						<link>
							<linkclipref>clipitem-21936</linkclipref>
							<mediatype>audio</mediatype>
							<trackindex>21</trackindex>
							<clipindex>1</clipindex>
							<groupindex>1</groupindex>
						</link>
						<link>
							<linkclipref>clipitem-21937</linkclipref>
							<mediatype>audio</mediatype>
							<trackindex>22</trackindex>
							<clipindex>1</clipindex>
							<groupindex>1</groupindex>
						</link>
						<logginginfo>
							<description></description>
							<scene></scene>
							<shottake></shottake>
							<lognote></lognote>
							<good></good>
							<originalvideofilename></originalvideofilename>
							<originalaudiofilename></originalaudiofilename>
						</logginginfo>
						<colorinfo>
							<lut></lut>
							<lut1></lut1>
							<asc_sop></asc_sop>
							<asc_sat></asc_sat>
							<lut2></lut2>
						</colorinfo>
						<labels>
							<label2>Caribbean</label2>
						</labels>
					</clipitem>
					<enabled>TRUE</enabled>
					<locked>FALSE</locked>
					<outputchannelindex>1</outputchannelindex>
				</track>
				<track TL.SQTrackAudioKeyframeStyle="0" TL.SQTrackShy="0" TL.SQTrackExpandedHeight="15" TL.SQTrackExpanded="0" MZ.TrackTargeted="0" PannerCurrentValue="0.5" PannerIsInverted="true" PannerStartKeyframe="-91445760000000000,0.5,0,0,0,0,0,0" PannerName="Balance" currentExplodedTrackIndex="1" totalExplodedTrackCount="2" premiereTrackType="Stereo">
					<clipitem id="clipitem-21937" premiereChannelType="stereo">
						<masterclipid>masterclip-7754</masterclipid>
						<name>MyMovie_LP_v0126_HT_LoRo_24_MxScoreStem_1-2_0201.wav</name>
						<enabled>TRUE</enabled>
						<duration>180000</duration>
						<rate>
							<timebase>24</timebase>
							<ntsc>FALSE</ntsc>
						</rate>
						<start>0</start>
						<end>192</end>
						<in>0</in>
						<out>192</out>
						<pproTicksIn>0</pproTicksIn>
						<pproTicksOut>2032128000000</pproTicksOut>
						<file id="file-6341"/>
						<sourcetrack>
							<mediatype>audio</mediatype>
							<trackindex>2</trackindex>
						</sourcetrack>
						<link>
							<linkclipref>clipitem-21936</linkclipref>
							<mediatype>audio</mediatype>
							<trackindex>21</trackindex>
							<clipindex>1</clipindex>
							<groupindex>1</groupindex>
						</link>
						<link>
							<linkclipref>clipitem-21937</linkclipref>
							<mediatype>audio</mediatype>
							<trackindex>22</trackindex>
							<clipindex>1</clipindex>
							<groupindex>1</groupindex>
						</link>
						<logginginfo>
							<description></description>
							<scene></scene>
							<shottake></shottake>
							<lognote></lognote>
							<good></good>
							<originalvideofilename></originalvideofilename>
							<originalaudiofilename></originalaudiofilename>
						</logginginfo>
						<colorinfo>
							<lut></lut>
							<lut1></lut1>
							<asc_sop></asc_sop>
							<asc_sat></asc_sat>
							<lut2></lut2>
						</colorinfo>
						<labels>
							<label2>Caribbean</label2>
						</labels>
					</clipitem>
					<enabled>TRUE</enabled>
					<locked>FALSE</locked>
					<outputchannelindex>2</outputchannelindex>
				</track>
				<track TL.SQTrackAudioKeyframeStyle="0" TL.SQTrackShy="0" TL.SQTrackExpandedHeight="15" TL.SQTrackExpanded="0" MZ.TrackTargeted="0" PannerCurrentValue="0.5" PannerIsInverted="true" PannerStartKeyframe="-91445760000000000,0.5,0,0,0,0,0,0" PannerName="Balance" currentExplodedTrackIndex="0" totalExplodedTrackCount="2" premiereTrackType="Stereo">
					<clipitem id="clipitem-21938" premiereChannelType="stereo">
						<masterclipid>masterclip-7755</masterclipid>
						<name>MyMovie_LP_v0126_HT_LoRo_24_MxSourceStem_1-2_0201.wav</name>
						<enabled>TRUE</enabled>
						<duration>180000</duration>
						<rate>
							<timebase>24</timebase>
							<ntsc>FALSE</ntsc>
						</rate>
						<start>0</start>
						<end>192</end>
						<in>0</in>
						<out>192</out>
						<pproTicksIn>0</pproTicksIn>
						<pproTicksOut>2032128000000</pproTicksOut>
						<file id="file-6342">
							<name>MyMovie_LP_v0126_HT_LoRo_24_MxSourceStem_1-2_0201.wav</name>
							<pathurl>file://localhost/Volumes/Media/MyMovie/Media/Media%20-%20Received/Sound/Mixes/Longplay/20230202%20Stereo%20Crashdowns/2023_02_02_Stereo%20Crashdowns_interleaved/MyMovie_LP_v0126_HT_LoRo_24_MxSourceStem_1-2_0201.wav</pathurl>
							<rate>
								<timebase>24</timebase>
								<ntsc>FALSE</ntsc>
							</rate>
							<duration>180000</duration>
							<timecode>
								<rate>
									<timebase>24</timebase>
									<ntsc>FALSE</ntsc>
								</rate>
								<string>01:00:00:00</string>
								<frame>86400</frame>
								<displayformat>NDF</displayformat>
							</timecode>
							<media>
								<audio>
									<samplecharacteristics>
										<depth>16</depth>
										<samplerate>48000</samplerate>
									</samplecharacteristics>
									<channelcount>2</channelcount>
								</audio>
							</media>
						</file>
						<sourcetrack>
							<mediatype>audio</mediatype>
							<trackindex>1</trackindex>
						</sourcetrack>
						<link>
							<linkclipref>clipitem-21938</linkclipref>
							<mediatype>audio</mediatype>
							<trackindex>23</trackindex>
							<clipindex>1</clipindex>
							<groupindex>1</groupindex>
						</link>
						<link>
							<linkclipref>clipitem-21939</linkclipref>
							<mediatype>audio</mediatype>
							<trackindex>24</trackindex>
							<clipindex>1</clipindex>
							<groupindex>1</groupindex>
						</link>
						<logginginfo>
							<description></description>
							<scene></scene>
							<shottake></shottake>
							<lognote></lognote>
							<good></good>
							<originalvideofilename></originalvideofilename>
							<originalaudiofilename></originalaudiofilename>
						</logginginfo>
						<colorinfo>
							<lut></lut>
							<lut1></lut1>
							<asc_sop></asc_sop>
							<asc_sat></asc_sat>
							<lut2></lut2>
						</colorinfo>
						<labels>
							<label2>Cerulean</label2>
						</labels>
					</clipitem>
					<enabled>TRUE</enabled>
					<locked>FALSE</locked>
					<outputchannelindex>1</outputchannelindex>
				</track>
				<track TL.SQTrackAudioKeyframeStyle="0" TL.SQTrackShy="0" TL.SQTrackExpandedHeight="15" TL.SQTrackExpanded="0" MZ.TrackTargeted="0" PannerCurrentValue="0.5" PannerIsInverted="true" PannerStartKeyframe="-91445760000000000,0.5,0,0,0,0,0,0" PannerName="Balance" currentExplodedTrackIndex="1" totalExplodedTrackCount="2" premiereTrackType="Stereo">
					<clipitem id="clipitem-21939" premiereChannelType="stereo">
						<masterclipid>masterclip-7755</masterclipid>
						<name>MyMovie_LP_v0126_HT_LoRo_24_MxSourceStem_1-2_0201.wav</name>
						<enabled>TRUE</enabled>
						<duration>180000</duration>
						<rate>
							<timebase>24</timebase>
							<ntsc>FALSE</ntsc>
						</rate>
						<start>0</start>
						<end>192</end>
						<in>0</in>
						<out>192</out>
						<pproTicksIn>0</pproTicksIn>
						<pproTicksOut>2032128000000</pproTicksOut>
						<file id="file-6342"/>
						<sourcetrack>
							<mediatype>audio</mediatype>
							<trackindex>2</trackindex>
						</sourcetrack>
						<link>
							<linkclipref>clipitem-21938</linkclipref>
							<mediatype>audio</mediatype>
							<trackindex>23</trackindex>
							<clipindex>1</clipindex>
							<groupindex>1</groupindex>
						</link>
						<link>
							<linkclipref>clipitem-21939</linkclipref>
							<mediatype>audio</mediatype>
							<trackindex>24</trackindex>
							<clipindex>1</clipindex>
							<groupindex>1</groupindex>
						</link>
						<logginginfo>
							<description></description>
							<scene></scene>
							<shottake></shottake>
							<lognote></lognote>
							<good></good>
							<originalvideofilename></originalvideofilename>
							<originalaudiofilename></originalaudiofilename>
						</logginginfo>
						<colorinfo>
							<lut></lut>
							<lut1></lut1>
							<asc_sop></asc_sop>
							<asc_sat></asc_sat>
							<lut2></lut2>
						</colorinfo>
						<labels>
							<label2>Cerulean</label2>
						</labels>
					</clipitem>
					<enabled>TRUE</enabled>
					<locked>FALSE</locked>
					<outputchannelindex>2</outputchannelindex>
				</track>
			</audio>
		</media>
		<timecode>
			<rate>
				<timebase>24</timebase>
				<ntsc>FALSE</ntsc>
			</rate>
			<string>02:00:00:00</string>
			<frame>172800</frame>
			<displayformat>NDF</displayformat>
		</timecode>
			<marker>
				<comment></comment>
				<name>TOP LAYER IS -100% and FLOPPED</name>
				<in>554</in>
				<out>-1</out>
				<pproColor>4292277273</pproColor>
			</marker>
		<labels>
			<label2>Rose</label2>
		</labels>
		<logginginfo>
			<description></description>
			<scene></scene>
			<shottake></shottake>
			<lognote>v230619k</lognote>
			<good></good>
			<originalvideofilename></originalvideofilename>
			<originalaudiofilename></originalaudiofilename>
		</logginginfo>
	</sequence>
</xmeml>
